M48
; DRILL file {KiCad (5.1.10-0-10_14)} date Tuesday, May 11, 2021 at 09:58:58 AM
; FORMAT={2:4/ absolute / inch / suppress leading zeros}
; #@! TF.CreationDate,2021-05-11T09:58:58+02:00
; #@! TF.GenerationSoftware,Kicad,Pcbnew,(5.1.10-0-10_14)
FMAT,2
INCH,TZ
T1C0.0157
T2C0.0236
T3C0.0315
T4C0.0354
T5C0.0394
T6C0.0630
%
G90
G05
T1
X37487Y-51395
X37900Y-27100
X38000Y-33000
X39100Y-50600
X39449Y-51343
X40600Y-27200
X40700Y-53100
X41000Y-23400
X41000Y-37200
X41100Y-34700
X41200Y-35700
X41700Y-40500
X41900Y-29600
X42400Y-45600
X42600Y-26800
X42700Y-44900
X42792Y-38840
X42800Y-29100
X43000Y-33500
X43000Y-37100
X43000Y-45600
X43085Y-30792
X43100Y-34700
X43200Y-41200
X43212Y-45208
X43428Y-38839
X43499Y-41084
X43500Y-27300
X43500Y-37100
X43564Y-29617
X43602Y-29323
X43700Y-32800
X43777Y-28657
X43992Y-40392
X44000Y-27200
X44000Y-31300
X44000Y-33300
X44000Y-39208
X44100Y-29100
X44500Y-33000
X44533Y-28787
X44600Y-45408
X44776Y-28617
X44860Y-30792
X44910Y-26841
X45000Y-37600
X45000Y-41292
X45277Y-30723
X45500Y-27200
X45500Y-29100
X45620Y-33100
X45699Y-34790
X46300Y-29000
X46392Y-42621
X46600Y-30400
X46600Y-31300
X46808Y-35164
X46808Y-37000
X46900Y-30000
X46900Y-40700
X47000Y-44100
X47200Y-29500
X47803Y-49057
X47803Y-49782
X48200Y-48400
X48478Y-29880
X48494Y-36384
X48500Y-36800
X48792Y-39075
X48800Y-23400
X49000Y-33400
X49000Y-34800
X49253Y-31633
X49400Y-26100
X49400Y-40100
X49500Y-44100
X50000Y-28100
X50000Y-40000
X50200Y-38600
X50300Y-24000
X50300Y-30400
X50700Y-30300
X50700Y-41500
X50800Y-25800
X51000Y-34250
X51000Y-35000
X51105Y-31327
X51290Y-39922
X51500Y-32000
X51504Y-25217
X51528Y-30387
X51692Y-34595
X51800Y-29400
X51823Y-26953
X51900Y-31600
X51900Y-42900
X52072Y-26600
X52100Y-36400
X52100Y-38400
X52200Y-29800
X52300Y-24100
X52300Y-33600
X52400Y-24792
X52503Y-40613
X52600Y-26000
X52600Y-32400
X52627Y-33392
X52703Y-45997
X52800Y-35900
X53100Y-38600
X53308Y-41292
X53387Y-27000
X53516Y-44400
X53528Y-27633
X53595Y-47695
X54026Y-47908
X54375Y-49266
X54646Y-47951
X54936Y-36902
X55000Y-35000
X55000Y-40500
X55100Y-41800
X55200Y-24000
X55290Y-37613
X55300Y-48192
X55900Y-46900
X56100Y-32200
X56400Y-33900
X57500Y-49400
X57600Y-24700
X57792Y-39387
X57900Y-47392
X58000Y-29600
X58300Y-24700
X58300Y-48008
X58372Y-48436
X58900Y-30600
X59131Y-25869
X59237Y-47892
X59368Y-25462
X59400Y-36600
X59495Y-28405
X60700Y-44708
X60888Y-49148
X61300Y-44200
X62195Y-34405
X62284Y-42979
X62500Y-36400
X62838Y-42885
X62892Y-44000
X63000Y-39100
X63000Y-42500
X63400Y-34600
X63500Y-31803
X63500Y-33613
X63500Y-35500
X63508Y-44794
X63600Y-30600
X63613Y-26800
X63628Y-43768
X63800Y-39500
X63908Y-24592
X63967Y-32565
X64100Y-50000
X64292Y-27405
X64300Y-28100
X64303Y-44097
X64325Y-29575
X64372Y-34613
X64500Y-27000
X64600Y-31300
X64600Y-42200
X64656Y-47962
X64676Y-44824
X64795Y-28405
X65000Y-27700
X65000Y-30100
X65208Y-28984
X65208Y-29400
X65215Y-49674
X65300Y-28000
X65408Y-49898
X66036Y-50100
X66500Y-35208
X66600Y-31500
X66700Y-25700
X66800Y-41100
X66879Y-32792
X67102Y-35606
X67172Y-32000
X67219Y-34208
X67287Y-35208
X67400Y-39300
X67500Y-35900
X67700Y-24800
X67700Y-33700
X67700Y-34800
X67800Y-31400
X68100Y-30200
X68500Y-34000
X68500Y-38000
X68600Y-28900
X68900Y-37000
X69192Y-36223
X69300Y-25100
X69400Y-28100
X69608Y-34800
X69700Y-26400
X69700Y-35400
X69800Y-27100
X71800Y-33500
X72000Y-25200
X72800Y-28500
X72800Y-30500
X73100Y-24800
X73133Y-25312
X73400Y-24600
T2
X38500Y-24000
X39091Y-24000
T3
X38500Y-46500
X38500Y-52500
X41500Y-46500
X41500Y-52500
X47000Y-45000
X47000Y-47000
X48000Y-24000
X48000Y-25000
X48000Y-26000
X48000Y-27000
X48000Y-28000
X48000Y-29000
X48000Y-30000
X48000Y-31000
X48000Y-32000
X48000Y-33000
X48000Y-34000
X48000Y-35000
X48000Y-36000
X48000Y-37000
X48000Y-38000
X48000Y-39000
X48000Y-40000
X48000Y-41000
X48000Y-42000
X48000Y-43000
X48000Y-45000
X48000Y-47000
X49000Y-45000
X49000Y-47000
X50000Y-45000
X50000Y-47000
X51000Y-45000
X51000Y-47000
X52000Y-45000
X52000Y-47000
X53000Y-45000
X53000Y-47000
X54000Y-24000
X54000Y-25000
X54000Y-26000
X54000Y-27000
X54000Y-28000
X54000Y-29000
X54000Y-30000
X54000Y-31000
X54000Y-32000
X54000Y-33000
X54000Y-34000
X54000Y-35000
X54000Y-36000
X54000Y-37000
X54000Y-38000
X54000Y-39000
X54000Y-40000
X54000Y-41000
X54000Y-42000
X54000Y-43000
X54000Y-45000
X54000Y-47000
X55000Y-45000
X55000Y-47000
X57000Y-24000
X57000Y-25000
X57000Y-26000
X57000Y-27000
X57000Y-28000
X57000Y-29000
X57000Y-30000
X57000Y-31000
X57000Y-32000
X57000Y-33000
X57000Y-34000
X57000Y-35000
X57000Y-36000
X57000Y-37000
X58000Y-41500
X58000Y-42500
X58000Y-43500
X58000Y-44500
X58000Y-45500
X58000Y-46500
X59000Y-40500
X59000Y-41500
X59000Y-42500
X59000Y-43500
X59000Y-44500
X59000Y-45500
X59000Y-46500
X59000Y-47500
X60000Y-24000
X60000Y-25000
X60000Y-26000
X60000Y-27000
X60000Y-28000
X60000Y-29000
X60000Y-30000
X60000Y-31000
X60000Y-32000
X60000Y-33000
X60000Y-34000
X60000Y-35000
X60000Y-36000
X60000Y-37000
X60000Y-40500
X60000Y-41500
X60000Y-46500
X60000Y-47500
X61000Y-40500
X61000Y-41500
X61000Y-46500
X61000Y-47500
X62000Y-40500
X62000Y-41500
X62000Y-46500
X62000Y-47500
X63000Y-24000
X63000Y-25000
X63000Y-26000
X63000Y-27000
X63000Y-28000
X63000Y-29000
X63000Y-30000
X63000Y-31000
X63000Y-32000
X63000Y-33000
X63000Y-34000
X63000Y-35000
X63000Y-36000
X63000Y-37000
X63000Y-40500
X63000Y-41500
X63000Y-46500
X63000Y-47500
X64000Y-40500
X64000Y-41500
X64000Y-42500
X64000Y-43500
X64000Y-44500
X64000Y-45500
X64000Y-46500
X64000Y-47500
X65000Y-41500
X65000Y-42500
X65000Y-43500
X65000Y-44500
X65000Y-45500
X65000Y-46500
X66000Y-24000
X66000Y-25000
X66000Y-26000
X66000Y-27000
X66000Y-28000
X66000Y-29000
X66000Y-30000
X66000Y-31000
X66000Y-32000
X66000Y-33000
X66000Y-34000
X66000Y-35000
X66000Y-36000
X66000Y-37000
X68000Y-43000
X68000Y-44921
T4
X39500Y-40500
X40500Y-40500
T5
X36000Y-24000
X36000Y-25000
X36000Y-26000
X36000Y-27000
X36000Y-28000
X36000Y-29000
X36000Y-30000
X36000Y-31000
X36000Y-32000
X36000Y-33000
X36000Y-34000
X36000Y-35000
X36000Y-36000
X36000Y-37000
X36000Y-38000
X36000Y-39000
X36000Y-40000
X36000Y-41000
X37000Y-24000
X37000Y-25000
X37000Y-26000
X37000Y-27000
X37000Y-28000
X37000Y-29000
X37000Y-30000
X37000Y-31000
X37000Y-32000
X37000Y-33000
X37000Y-34000
X37000Y-35000
X37000Y-36000
X37000Y-37000
X37000Y-38000
X37000Y-39000
X37000Y-40000
X37000Y-41000
X38000Y-44000
X39000Y-44000
X40000Y-44000
X41000Y-44000
X42000Y-44000
X43000Y-44000
X44000Y-44000
X45000Y-44000
X52500Y-50500
X53500Y-50500
X54500Y-50500
X55500Y-50500
X56500Y-50500
X57500Y-50500
X60500Y-50500
X61500Y-50500
X62500Y-50500
X63500Y-50500
X64500Y-50500
X65500Y-50500
X71500Y-23000
X71500Y-24000
X71500Y-25000
X71500Y-26000
X71500Y-27000
X71500Y-28000
X71500Y-29000
X71500Y-30000
X71500Y-31000
X71500Y-32000
X71500Y-33000
X71500Y-34000
X71500Y-35000
X71500Y-36000
X71500Y-37000
X71500Y-38000
X71500Y-39000
X71500Y-40000
X71500Y-41000
X71500Y-42000
X71500Y-43000
X71500Y-44000
X71500Y-45000
X71500Y-46000
X71500Y-47000
X71500Y-48000
X71500Y-49000
X71500Y-50000
X71500Y-51000
X71500Y-52000
X71500Y-53000
X71500Y-54000
X72500Y-23000
X72500Y-24000
X72500Y-25000
X72500Y-26000
X72500Y-27000
X72500Y-28000
X72500Y-29000
X72500Y-30000
X72500Y-31000
X72500Y-32000
X72500Y-33000
X72500Y-34000
X72500Y-35000
X72500Y-36000
X72500Y-37000
X72500Y-38000
X72500Y-39000
X72500Y-40000
X72500Y-41000
X72500Y-42000
X72500Y-43000
X72500Y-44000
X72500Y-45000
X72500Y-46000
X72500Y-47000
X72500Y-48000
X72500Y-49000
X72500Y-50000
X72500Y-51000
X72500Y-52000
X72500Y-53000
X72500Y-54000
T6
X44500Y-47000
T0
M30
