%TF.GenerationSoftware,KiCad,Pcbnew,(5.1.10-0-10_14)*%
%TF.CreationDate,2021-05-11T09:59:00+02:00*%
%TF.ProjectId,Z80_Dev_Board,5a38305f-4465-4765-9f42-6f6172642e6b,rev?*%
%TF.SameCoordinates,Original*%
%TF.FileFunction,Soldermask,Bot*%
%TF.FilePolarity,Negative*%
%FSLAX46Y46*%
G04 Gerber Fmt 4.6, Leading zero omitted, Abs format (unit mm)*
G04 Created by KiCad (PCBNEW (5.1.10-0-10_14)) date 2021-05-11 09:59:00*
%MOMM*%
%LPD*%
G01*
G04 APERTURE LIST*
%ADD10C,1.200000*%
%ADD11R,1.200000X1.200000*%
%ADD12O,1.700000X1.700000*%
%ADD13R,1.700000X1.700000*%
%ADD14O,1.600000X1.600000*%
%ADD15R,1.600000X1.600000*%
%ADD16C,2.800000*%
%ADD17R,1.800000X1.800000*%
%ADD18C,1.800000*%
%ADD19R,1.422400X1.422400*%
%ADD20C,1.422400*%
%ADD21C,1.600000*%
%ADD22C,1.500000*%
G04 APERTURE END LIST*
D10*
X99290000Y-60960000D03*
D11*
X97790000Y-60960000D03*
D12*
X181610000Y-137160000D03*
X184150000Y-137160000D03*
X181610000Y-134620000D03*
X184150000Y-134620000D03*
X181610000Y-132080000D03*
X184150000Y-132080000D03*
X181610000Y-129540000D03*
X184150000Y-129540000D03*
X181610000Y-127000000D03*
X184150000Y-127000000D03*
X181610000Y-124460000D03*
X184150000Y-124460000D03*
X181610000Y-121920000D03*
X184150000Y-121920000D03*
X181610000Y-119380000D03*
X184150000Y-119380000D03*
X181610000Y-116840000D03*
X184150000Y-116840000D03*
X181610000Y-114300000D03*
X184150000Y-114300000D03*
X181610000Y-111760000D03*
X184150000Y-111760000D03*
X181610000Y-109220000D03*
X184150000Y-109220000D03*
X181610000Y-106680000D03*
X184150000Y-106680000D03*
X181610000Y-104140000D03*
X184150000Y-104140000D03*
X181610000Y-101600000D03*
X184150000Y-101600000D03*
X181610000Y-99060000D03*
X184150000Y-99060000D03*
X181610000Y-96520000D03*
X184150000Y-96520000D03*
X181610000Y-93980000D03*
X184150000Y-93980000D03*
X181610000Y-91440000D03*
X184150000Y-91440000D03*
X181610000Y-88900000D03*
X184150000Y-88900000D03*
X181610000Y-86360000D03*
X184150000Y-86360000D03*
X181610000Y-83820000D03*
X184150000Y-83820000D03*
X181610000Y-81280000D03*
X184150000Y-81280000D03*
X181610000Y-78740000D03*
X184150000Y-78740000D03*
X181610000Y-76200000D03*
X184150000Y-76200000D03*
X181610000Y-73660000D03*
X184150000Y-73660000D03*
X181610000Y-71120000D03*
X184150000Y-71120000D03*
X181610000Y-68580000D03*
X184150000Y-68580000D03*
X181610000Y-66040000D03*
X184150000Y-66040000D03*
X181610000Y-63500000D03*
X184150000Y-63500000D03*
X181610000Y-60960000D03*
X184150000Y-60960000D03*
X181610000Y-58420000D03*
D13*
X184150000Y-58420000D03*
D14*
X167640000Y-60960000D03*
X160020000Y-93980000D03*
X167640000Y-63500000D03*
X160020000Y-91440000D03*
X167640000Y-66040000D03*
X160020000Y-88900000D03*
X167640000Y-68580000D03*
X160020000Y-86360000D03*
X167640000Y-71120000D03*
X160020000Y-83820000D03*
X167640000Y-73660000D03*
X160020000Y-81280000D03*
X167640000Y-76200000D03*
X160020000Y-78740000D03*
X167640000Y-78740000D03*
X160020000Y-76200000D03*
X167640000Y-81280000D03*
X160020000Y-73660000D03*
X167640000Y-83820000D03*
X160020000Y-71120000D03*
X167640000Y-86360000D03*
X160020000Y-68580000D03*
X167640000Y-88900000D03*
X160020000Y-66040000D03*
X167640000Y-91440000D03*
X160020000Y-63500000D03*
X167640000Y-93980000D03*
D15*
X160020000Y-60960000D03*
D14*
X152400000Y-60960000D03*
X144780000Y-93980000D03*
X152400000Y-63500000D03*
X144780000Y-91440000D03*
X152400000Y-66040000D03*
X144780000Y-88900000D03*
X152400000Y-68580000D03*
X144780000Y-86360000D03*
X152400000Y-71120000D03*
X144780000Y-83820000D03*
X152400000Y-73660000D03*
X144780000Y-81280000D03*
X152400000Y-76200000D03*
X144780000Y-78740000D03*
X152400000Y-78740000D03*
X144780000Y-76200000D03*
X152400000Y-81280000D03*
X144780000Y-73660000D03*
X152400000Y-83820000D03*
X144780000Y-71120000D03*
X152400000Y-86360000D03*
X144780000Y-68580000D03*
X152400000Y-88900000D03*
X144780000Y-66040000D03*
X152400000Y-91440000D03*
X144780000Y-63500000D03*
X152400000Y-93980000D03*
D15*
X144780000Y-60960000D03*
D14*
X139700000Y-119380000D03*
X137160000Y-119380000D03*
X134620000Y-119380000D03*
X132080000Y-119380000D03*
X129540000Y-119380000D03*
X127000000Y-119380000D03*
X124460000Y-119380000D03*
X121920000Y-119380000D03*
D15*
X119380000Y-119380000D03*
D14*
X139700000Y-114300000D03*
X137160000Y-114300000D03*
X134620000Y-114300000D03*
X132080000Y-114300000D03*
X129540000Y-114300000D03*
X127000000Y-114300000D03*
X124460000Y-114300000D03*
X121920000Y-114300000D03*
D15*
X119380000Y-114300000D03*
G36*
G01*
X100825000Y-117485000D02*
X100825000Y-118735000D01*
G75*
G02*
X100575000Y-118985000I-250000J0D01*
G01*
X99650000Y-118985000D01*
G75*
G02*
X99400000Y-118735000I0J250000D01*
G01*
X99400000Y-117485000D01*
G75*
G02*
X99650000Y-117235000I250000J0D01*
G01*
X100575000Y-117235000D01*
G75*
G02*
X100825000Y-117485000I0J-250000D01*
G01*
G37*
G36*
G01*
X103800000Y-117485000D02*
X103800000Y-118735000D01*
G75*
G02*
X103550000Y-118985000I-250000J0D01*
G01*
X102625000Y-118985000D01*
G75*
G02*
X102375000Y-118735000I0J250000D01*
G01*
X102375000Y-117485000D01*
G75*
G02*
X102625000Y-117235000I250000J0D01*
G01*
X103550000Y-117235000D01*
G75*
G02*
X103800000Y-117485000I0J-250000D01*
G01*
G37*
G36*
G01*
X163055000Y-60335000D02*
X163055000Y-61585000D01*
G75*
G02*
X162805000Y-61835000I-250000J0D01*
G01*
X161880000Y-61835000D01*
G75*
G02*
X161630000Y-61585000I0J250000D01*
G01*
X161630000Y-60335000D01*
G75*
G02*
X161880000Y-60085000I250000J0D01*
G01*
X162805000Y-60085000D01*
G75*
G02*
X163055000Y-60335000I0J-250000D01*
G01*
G37*
G36*
G01*
X166030000Y-60335000D02*
X166030000Y-61585000D01*
G75*
G02*
X165780000Y-61835000I-250000J0D01*
G01*
X164855000Y-61835000D01*
G75*
G02*
X164605000Y-61585000I0J250000D01*
G01*
X164605000Y-60335000D01*
G75*
G02*
X164855000Y-60085000I250000J0D01*
G01*
X165780000Y-60085000D01*
G75*
G02*
X166030000Y-60335000I0J-250000D01*
G01*
G37*
G36*
G01*
X147815000Y-60335000D02*
X147815000Y-61585000D01*
G75*
G02*
X147565000Y-61835000I-250000J0D01*
G01*
X146640000Y-61835000D01*
G75*
G02*
X146390000Y-61585000I0J250000D01*
G01*
X146390000Y-60335000D01*
G75*
G02*
X146640000Y-60085000I250000J0D01*
G01*
X147565000Y-60085000D01*
G75*
G02*
X147815000Y-60335000I0J-250000D01*
G01*
G37*
G36*
G01*
X150790000Y-60335000D02*
X150790000Y-61585000D01*
G75*
G02*
X150540000Y-61835000I-250000J0D01*
G01*
X149615000Y-61835000D01*
G75*
G02*
X149365000Y-61585000I0J250000D01*
G01*
X149365000Y-60335000D01*
G75*
G02*
X149615000Y-60085000I250000J0D01*
G01*
X150540000Y-60085000D01*
G75*
G02*
X150790000Y-60335000I0J-250000D01*
G01*
G37*
G36*
G01*
X156985000Y-100955000D02*
X156985000Y-99705000D01*
G75*
G02*
X157235000Y-99455000I250000J0D01*
G01*
X158160000Y-99455000D01*
G75*
G02*
X158410000Y-99705000I0J-250000D01*
G01*
X158410000Y-100955000D01*
G75*
G02*
X158160000Y-101205000I-250000J0D01*
G01*
X157235000Y-101205000D01*
G75*
G02*
X156985000Y-100955000I0J250000D01*
G01*
G37*
G36*
G01*
X154010000Y-100955000D02*
X154010000Y-99705000D01*
G75*
G02*
X154260000Y-99455000I250000J0D01*
G01*
X155185000Y-99455000D01*
G75*
G02*
X155435000Y-99705000I0J-250000D01*
G01*
X155435000Y-100955000D01*
G75*
G02*
X155185000Y-101205000I-250000J0D01*
G01*
X154260000Y-101205000D01*
G75*
G02*
X154010000Y-100955000I0J250000D01*
G01*
G37*
G36*
G01*
X124955000Y-85735000D02*
X124955000Y-86985000D01*
G75*
G02*
X124705000Y-87235000I-250000J0D01*
G01*
X123780000Y-87235000D01*
G75*
G02*
X123530000Y-86985000I0J250000D01*
G01*
X123530000Y-85735000D01*
G75*
G02*
X123780000Y-85485000I250000J0D01*
G01*
X124705000Y-85485000D01*
G75*
G02*
X124955000Y-85735000I0J-250000D01*
G01*
G37*
G36*
G01*
X127930000Y-85735000D02*
X127930000Y-86985000D01*
G75*
G02*
X127680000Y-87235000I-250000J0D01*
G01*
X126755000Y-87235000D01*
G75*
G02*
X126505000Y-86985000I0J250000D01*
G01*
X126505000Y-85735000D01*
G75*
G02*
X126755000Y-85485000I250000J0D01*
G01*
X127680000Y-85485000D01*
G75*
G02*
X127930000Y-85735000I0J-250000D01*
G01*
G37*
D12*
X114300000Y-111760000D03*
X111760000Y-111760000D03*
X109220000Y-111760000D03*
X106680000Y-111760000D03*
X104140000Y-111760000D03*
X101600000Y-111760000D03*
X99060000Y-111760000D03*
D13*
X96520000Y-111760000D03*
D16*
X113030000Y-119380000D03*
D17*
X100330000Y-102870000D03*
D18*
X102870000Y-102870000D03*
D13*
X93980000Y-60960000D03*
D12*
X91440000Y-60960000D03*
X93980000Y-63500000D03*
X91440000Y-63500000D03*
X93980000Y-66040000D03*
X91440000Y-66040000D03*
X93980000Y-68580000D03*
X91440000Y-68580000D03*
X93980000Y-71120000D03*
X91440000Y-71120000D03*
X93980000Y-73660000D03*
X91440000Y-73660000D03*
X93980000Y-76200000D03*
X91440000Y-76200000D03*
X93980000Y-78740000D03*
X91440000Y-78740000D03*
X93980000Y-81280000D03*
X91440000Y-81280000D03*
X93980000Y-83820000D03*
X91440000Y-83820000D03*
X93980000Y-86360000D03*
X91440000Y-86360000D03*
X93980000Y-88900000D03*
X91440000Y-88900000D03*
X93980000Y-91440000D03*
X91440000Y-91440000D03*
X93980000Y-93980000D03*
X91440000Y-93980000D03*
X93980000Y-96520000D03*
X91440000Y-96520000D03*
X93980000Y-99060000D03*
X91440000Y-99060000D03*
X93980000Y-101600000D03*
X91440000Y-101600000D03*
X93980000Y-104140000D03*
X91440000Y-104140000D03*
X153670000Y-128270000D03*
X156210000Y-128270000D03*
X158750000Y-128270000D03*
X161290000Y-128270000D03*
X163830000Y-128270000D03*
D13*
X166370000Y-128270000D03*
X146050000Y-128270000D03*
D12*
X143510000Y-128270000D03*
X140970000Y-128270000D03*
X138430000Y-128270000D03*
X135890000Y-128270000D03*
X133350000Y-128270000D03*
D15*
X121920000Y-60960000D03*
D14*
X137160000Y-109220000D03*
X121920000Y-63500000D03*
X137160000Y-106680000D03*
X121920000Y-66040000D03*
X137160000Y-104140000D03*
X121920000Y-68580000D03*
X137160000Y-101600000D03*
X121920000Y-71120000D03*
X137160000Y-99060000D03*
X121920000Y-73660000D03*
X137160000Y-96520000D03*
X121920000Y-76200000D03*
X137160000Y-93980000D03*
X121920000Y-78740000D03*
X137160000Y-91440000D03*
X121920000Y-81280000D03*
X137160000Y-88900000D03*
X121920000Y-83820000D03*
X137160000Y-86360000D03*
X121920000Y-86360000D03*
X137160000Y-83820000D03*
X121920000Y-88900000D03*
X137160000Y-81280000D03*
X121920000Y-91440000D03*
X137160000Y-78740000D03*
X121920000Y-93980000D03*
X137160000Y-76200000D03*
X121920000Y-96520000D03*
X137160000Y-73660000D03*
X121920000Y-99060000D03*
X137160000Y-71120000D03*
X121920000Y-101600000D03*
X137160000Y-68580000D03*
X121920000Y-104140000D03*
X137160000Y-66040000D03*
X121920000Y-106680000D03*
X137160000Y-63500000D03*
X121920000Y-109220000D03*
X137160000Y-60960000D03*
D19*
X157480000Y-105410000D03*
D20*
X154940000Y-105410000D03*
X152400000Y-105410000D03*
X160020000Y-105410000D03*
X162560000Y-105410000D03*
X154940000Y-102870000D03*
X152400000Y-102870000D03*
X149860000Y-102870000D03*
X157480000Y-102870000D03*
X160020000Y-102870000D03*
X149860000Y-105410000D03*
X149860000Y-107950000D03*
X149860000Y-110490000D03*
X149860000Y-113030000D03*
X149860000Y-115570000D03*
X147320000Y-105410000D03*
X147320000Y-107950000D03*
X147320000Y-110490000D03*
X147320000Y-113030000D03*
X147320000Y-115570000D03*
X147320000Y-118110000D03*
X149860000Y-118110000D03*
X152400000Y-118110000D03*
X154940000Y-118110000D03*
X157480000Y-118110000D03*
X160020000Y-118110000D03*
X165100000Y-118110000D03*
X149860000Y-120650000D03*
X152400000Y-120650000D03*
X154940000Y-120650000D03*
X157480000Y-120650000D03*
X160020000Y-120650000D03*
X162560000Y-120650000D03*
X162560000Y-118110000D03*
X162560000Y-115570000D03*
X162560000Y-113030000D03*
X162560000Y-110490000D03*
X162560000Y-107950000D03*
X162560000Y-102870000D03*
X165100000Y-115570000D03*
X165100000Y-113030000D03*
X165100000Y-110490000D03*
X165100000Y-107950000D03*
X165100000Y-105410000D03*
D15*
X97790000Y-118110000D03*
D21*
X105410000Y-118110000D03*
X105410000Y-133350000D03*
X97790000Y-133350000D03*
D22*
X172720000Y-114100000D03*
X172720000Y-109220000D03*
M02*
