%TF.GenerationSoftware,KiCad,Pcbnew,(5.1.6-0-10_14)*%
%TF.CreationDate,2021-04-25T21:39:23+02:00*%
%TF.ProjectId,Z80_Dev_Board,5a38305f-4465-4765-9f42-6f6172642e6b,rev?*%
%TF.SameCoordinates,Original*%
%TF.FileFunction,Soldermask,Bot*%
%TF.FilePolarity,Negative*%
%FSLAX46Y46*%
G04 Gerber Fmt 4.6, Leading zero omitted, Abs format (unit mm)*
G04 Created by KiCad (PCBNEW (5.1.6-0-10_14)) date 2021-04-25 21:39:23*
%MOMM*%
%LPD*%
G01*
G04 APERTURE LIST*
%ADD10O,1.800000X1.800000*%
%ADD11R,1.800000X1.800000*%
%ADD12O,1.700000X1.700000*%
%ADD13R,1.700000X1.700000*%
%ADD14C,2.900000*%
%ADD15C,1.700000*%
%ADD16R,1.900000X1.900000*%
%ADD17C,1.900000*%
%ADD18R,1.522400X1.522400*%
%ADD19C,1.522400*%
%ADD20C,1.600000*%
G04 APERTURE END LIST*
D10*
X181610000Y-137160000D03*
X184150000Y-137160000D03*
X181610000Y-134620000D03*
X184150000Y-134620000D03*
X181610000Y-132080000D03*
X184150000Y-132080000D03*
X181610000Y-129540000D03*
X184150000Y-129540000D03*
X181610000Y-127000000D03*
X184150000Y-127000000D03*
X181610000Y-124460000D03*
X184150000Y-124460000D03*
X181610000Y-121920000D03*
X184150000Y-121920000D03*
X181610000Y-119380000D03*
X184150000Y-119380000D03*
X181610000Y-116840000D03*
X184150000Y-116840000D03*
X181610000Y-114300000D03*
X184150000Y-114300000D03*
X181610000Y-111760000D03*
X184150000Y-111760000D03*
X181610000Y-109220000D03*
X184150000Y-109220000D03*
X181610000Y-106680000D03*
X184150000Y-106680000D03*
X181610000Y-104140000D03*
X184150000Y-104140000D03*
X181610000Y-101600000D03*
X184150000Y-101600000D03*
X181610000Y-99060000D03*
X184150000Y-99060000D03*
X181610000Y-96520000D03*
X184150000Y-96520000D03*
X181610000Y-93980000D03*
X184150000Y-93980000D03*
X181610000Y-91440000D03*
X184150000Y-91440000D03*
X181610000Y-88900000D03*
X184150000Y-88900000D03*
X181610000Y-86360000D03*
X184150000Y-86360000D03*
X181610000Y-83820000D03*
X184150000Y-83820000D03*
X181610000Y-81280000D03*
X184150000Y-81280000D03*
X181610000Y-78740000D03*
X184150000Y-78740000D03*
X181610000Y-76200000D03*
X184150000Y-76200000D03*
X181610000Y-73660000D03*
X184150000Y-73660000D03*
X181610000Y-71120000D03*
X184150000Y-71120000D03*
X181610000Y-68580000D03*
X184150000Y-68580000D03*
X181610000Y-66040000D03*
X184150000Y-66040000D03*
X181610000Y-63500000D03*
X184150000Y-63500000D03*
X181610000Y-60960000D03*
X184150000Y-60960000D03*
X181610000Y-58420000D03*
D11*
X184150000Y-58420000D03*
D12*
X167640000Y-60960000D03*
X160020000Y-93980000D03*
X167640000Y-63500000D03*
X160020000Y-91440000D03*
X167640000Y-66040000D03*
X160020000Y-88900000D03*
X167640000Y-68580000D03*
X160020000Y-86360000D03*
X167640000Y-71120000D03*
X160020000Y-83820000D03*
X167640000Y-73660000D03*
X160020000Y-81280000D03*
X167640000Y-76200000D03*
X160020000Y-78740000D03*
X167640000Y-78740000D03*
X160020000Y-76200000D03*
X167640000Y-81280000D03*
X160020000Y-73660000D03*
X167640000Y-83820000D03*
X160020000Y-71120000D03*
X167640000Y-86360000D03*
X160020000Y-68580000D03*
X167640000Y-88900000D03*
X160020000Y-66040000D03*
X167640000Y-91440000D03*
X160020000Y-63500000D03*
X167640000Y-93980000D03*
D13*
X160020000Y-60960000D03*
D12*
X152400000Y-60960000D03*
X144780000Y-93980000D03*
X152400000Y-63500000D03*
X144780000Y-91440000D03*
X152400000Y-66040000D03*
X144780000Y-88900000D03*
X152400000Y-68580000D03*
X144780000Y-86360000D03*
X152400000Y-71120000D03*
X144780000Y-83820000D03*
X152400000Y-73660000D03*
X144780000Y-81280000D03*
X152400000Y-76200000D03*
X144780000Y-78740000D03*
X152400000Y-78740000D03*
X144780000Y-76200000D03*
X152400000Y-81280000D03*
X144780000Y-73660000D03*
X152400000Y-83820000D03*
X144780000Y-71120000D03*
X152400000Y-86360000D03*
X144780000Y-68580000D03*
X152400000Y-88900000D03*
X144780000Y-66040000D03*
X152400000Y-91440000D03*
X144780000Y-63500000D03*
X152400000Y-93980000D03*
D13*
X144780000Y-60960000D03*
D12*
X139700000Y-119380000D03*
X137160000Y-119380000D03*
X134620000Y-119380000D03*
X132080000Y-119380000D03*
X129540000Y-119380000D03*
X127000000Y-119380000D03*
X124460000Y-119380000D03*
X121920000Y-119380000D03*
D13*
X119380000Y-119380000D03*
D12*
X139700000Y-114300000D03*
X137160000Y-114300000D03*
X134620000Y-114300000D03*
X132080000Y-114300000D03*
X129540000Y-114300000D03*
X127000000Y-114300000D03*
X124460000Y-114300000D03*
X121920000Y-114300000D03*
D13*
X119380000Y-114300000D03*
G36*
G01*
X100875000Y-117452544D02*
X100875000Y-118767456D01*
G75*
G02*
X100607456Y-119035000I-267544J0D01*
G01*
X99617544Y-119035000D01*
G75*
G02*
X99350000Y-118767456I0J267544D01*
G01*
X99350000Y-117452544D01*
G75*
G02*
X99617544Y-117185000I267544J0D01*
G01*
X100607456Y-117185000D01*
G75*
G02*
X100875000Y-117452544I0J-267544D01*
G01*
G37*
G36*
G01*
X103850000Y-117452544D02*
X103850000Y-118767456D01*
G75*
G02*
X103582456Y-119035000I-267544J0D01*
G01*
X102592544Y-119035000D01*
G75*
G02*
X102325000Y-118767456I0J267544D01*
G01*
X102325000Y-117452544D01*
G75*
G02*
X102592544Y-117185000I267544J0D01*
G01*
X103582456Y-117185000D01*
G75*
G02*
X103850000Y-117452544I0J-267544D01*
G01*
G37*
G36*
G01*
X163105000Y-60302544D02*
X163105000Y-61617456D01*
G75*
G02*
X162837456Y-61885000I-267544J0D01*
G01*
X161847544Y-61885000D01*
G75*
G02*
X161580000Y-61617456I0J267544D01*
G01*
X161580000Y-60302544D01*
G75*
G02*
X161847544Y-60035000I267544J0D01*
G01*
X162837456Y-60035000D01*
G75*
G02*
X163105000Y-60302544I0J-267544D01*
G01*
G37*
G36*
G01*
X166080000Y-60302544D02*
X166080000Y-61617456D01*
G75*
G02*
X165812456Y-61885000I-267544J0D01*
G01*
X164822544Y-61885000D01*
G75*
G02*
X164555000Y-61617456I0J267544D01*
G01*
X164555000Y-60302544D01*
G75*
G02*
X164822544Y-60035000I267544J0D01*
G01*
X165812456Y-60035000D01*
G75*
G02*
X166080000Y-60302544I0J-267544D01*
G01*
G37*
G36*
G01*
X147865000Y-60302544D02*
X147865000Y-61617456D01*
G75*
G02*
X147597456Y-61885000I-267544J0D01*
G01*
X146607544Y-61885000D01*
G75*
G02*
X146340000Y-61617456I0J267544D01*
G01*
X146340000Y-60302544D01*
G75*
G02*
X146607544Y-60035000I267544J0D01*
G01*
X147597456Y-60035000D01*
G75*
G02*
X147865000Y-60302544I0J-267544D01*
G01*
G37*
G36*
G01*
X150840000Y-60302544D02*
X150840000Y-61617456D01*
G75*
G02*
X150572456Y-61885000I-267544J0D01*
G01*
X149582544Y-61885000D01*
G75*
G02*
X149315000Y-61617456I0J267544D01*
G01*
X149315000Y-60302544D01*
G75*
G02*
X149582544Y-60035000I267544J0D01*
G01*
X150572456Y-60035000D01*
G75*
G02*
X150840000Y-60302544I0J-267544D01*
G01*
G37*
G36*
G01*
X156935000Y-100987456D02*
X156935000Y-99672544D01*
G75*
G02*
X157202544Y-99405000I267544J0D01*
G01*
X158192456Y-99405000D01*
G75*
G02*
X158460000Y-99672544I0J-267544D01*
G01*
X158460000Y-100987456D01*
G75*
G02*
X158192456Y-101255000I-267544J0D01*
G01*
X157202544Y-101255000D01*
G75*
G02*
X156935000Y-100987456I0J267544D01*
G01*
G37*
G36*
G01*
X153960000Y-100987456D02*
X153960000Y-99672544D01*
G75*
G02*
X154227544Y-99405000I267544J0D01*
G01*
X155217456Y-99405000D01*
G75*
G02*
X155485000Y-99672544I0J-267544D01*
G01*
X155485000Y-100987456D01*
G75*
G02*
X155217456Y-101255000I-267544J0D01*
G01*
X154227544Y-101255000D01*
G75*
G02*
X153960000Y-100987456I0J267544D01*
G01*
G37*
G36*
G01*
X125005000Y-85702544D02*
X125005000Y-87017456D01*
G75*
G02*
X124737456Y-87285000I-267544J0D01*
G01*
X123747544Y-87285000D01*
G75*
G02*
X123480000Y-87017456I0J267544D01*
G01*
X123480000Y-85702544D01*
G75*
G02*
X123747544Y-85435000I267544J0D01*
G01*
X124737456Y-85435000D01*
G75*
G02*
X125005000Y-85702544I0J-267544D01*
G01*
G37*
G36*
G01*
X127980000Y-85702544D02*
X127980000Y-87017456D01*
G75*
G02*
X127712456Y-87285000I-267544J0D01*
G01*
X126722544Y-87285000D01*
G75*
G02*
X126455000Y-87017456I0J267544D01*
G01*
X126455000Y-85702544D01*
G75*
G02*
X126722544Y-85435000I267544J0D01*
G01*
X127712456Y-85435000D01*
G75*
G02*
X127980000Y-85702544I0J-267544D01*
G01*
G37*
D10*
X114300000Y-111760000D03*
X111760000Y-111760000D03*
X109220000Y-111760000D03*
X106680000Y-111760000D03*
X104140000Y-111760000D03*
X101600000Y-111760000D03*
X99060000Y-111760000D03*
D11*
X96520000Y-111760000D03*
D14*
X113030000Y-119380000D03*
D13*
X97790000Y-60960000D03*
D15*
X100290000Y-60960000D03*
X172720000Y-120650000D03*
X172720000Y-123150000D03*
X172720000Y-102830000D03*
X172720000Y-100330000D03*
D16*
X100330000Y-102870000D03*
D17*
X102870000Y-102870000D03*
D11*
X93980000Y-60960000D03*
D10*
X91440000Y-60960000D03*
X93980000Y-63500000D03*
X91440000Y-63500000D03*
X93980000Y-66040000D03*
X91440000Y-66040000D03*
X93980000Y-68580000D03*
X91440000Y-68580000D03*
X93980000Y-71120000D03*
X91440000Y-71120000D03*
X93980000Y-73660000D03*
X91440000Y-73660000D03*
X93980000Y-76200000D03*
X91440000Y-76200000D03*
X93980000Y-78740000D03*
X91440000Y-78740000D03*
X93980000Y-81280000D03*
X91440000Y-81280000D03*
X93980000Y-83820000D03*
X91440000Y-83820000D03*
X93980000Y-86360000D03*
X91440000Y-86360000D03*
X93980000Y-88900000D03*
X91440000Y-88900000D03*
X93980000Y-91440000D03*
X91440000Y-91440000D03*
X93980000Y-93980000D03*
X91440000Y-93980000D03*
X93980000Y-96520000D03*
X91440000Y-96520000D03*
X93980000Y-99060000D03*
X91440000Y-99060000D03*
X93980000Y-101600000D03*
X91440000Y-101600000D03*
X93980000Y-104140000D03*
X91440000Y-104140000D03*
X153670000Y-128270000D03*
X156210000Y-128270000D03*
X158750000Y-128270000D03*
X161290000Y-128270000D03*
X163830000Y-128270000D03*
D11*
X166370000Y-128270000D03*
X146050000Y-128270000D03*
D10*
X143510000Y-128270000D03*
X140970000Y-128270000D03*
X138430000Y-128270000D03*
X135890000Y-128270000D03*
X133350000Y-128270000D03*
D15*
X106680000Y-102870000D03*
D12*
X116840000Y-102870000D03*
D13*
X121920000Y-60960000D03*
D12*
X137160000Y-109220000D03*
X121920000Y-63500000D03*
X137160000Y-106680000D03*
X121920000Y-66040000D03*
X137160000Y-104140000D03*
X121920000Y-68580000D03*
X137160000Y-101600000D03*
X121920000Y-71120000D03*
X137160000Y-99060000D03*
X121920000Y-73660000D03*
X137160000Y-96520000D03*
X121920000Y-76200000D03*
X137160000Y-93980000D03*
X121920000Y-78740000D03*
X137160000Y-91440000D03*
X121920000Y-81280000D03*
X137160000Y-88900000D03*
X121920000Y-83820000D03*
X137160000Y-86360000D03*
X121920000Y-86360000D03*
X137160000Y-83820000D03*
X121920000Y-88900000D03*
X137160000Y-81280000D03*
X121920000Y-91440000D03*
X137160000Y-78740000D03*
X121920000Y-93980000D03*
X137160000Y-76200000D03*
X121920000Y-96520000D03*
X137160000Y-73660000D03*
X121920000Y-99060000D03*
X137160000Y-71120000D03*
X121920000Y-101600000D03*
X137160000Y-68580000D03*
X121920000Y-104140000D03*
X137160000Y-66040000D03*
X121920000Y-106680000D03*
X137160000Y-63500000D03*
X121920000Y-109220000D03*
X137160000Y-60960000D03*
D18*
X157480000Y-105410000D03*
D19*
X154940000Y-105410000D03*
X152400000Y-105410000D03*
X160020000Y-105410000D03*
X162560000Y-105410000D03*
X154940000Y-102870000D03*
X152400000Y-102870000D03*
X149860000Y-102870000D03*
X157480000Y-102870000D03*
X160020000Y-102870000D03*
X149860000Y-105410000D03*
X149860000Y-107950000D03*
X149860000Y-110490000D03*
X149860000Y-113030000D03*
X149860000Y-115570000D03*
X147320000Y-105410000D03*
X147320000Y-107950000D03*
X147320000Y-110490000D03*
X147320000Y-113030000D03*
X147320000Y-115570000D03*
X147320000Y-118110000D03*
X149860000Y-118110000D03*
X152400000Y-118110000D03*
X154940000Y-118110000D03*
X157480000Y-118110000D03*
X160020000Y-118110000D03*
X165100000Y-118110000D03*
X149860000Y-120650000D03*
X152400000Y-120650000D03*
X154940000Y-120650000D03*
X157480000Y-120650000D03*
X160020000Y-120650000D03*
X162560000Y-120650000D03*
X162560000Y-118110000D03*
X162560000Y-115570000D03*
X162560000Y-113030000D03*
X162560000Y-110490000D03*
X162560000Y-107950000D03*
X162560000Y-102870000D03*
X165100000Y-115570000D03*
X165100000Y-113030000D03*
X165100000Y-110490000D03*
X165100000Y-107950000D03*
X165100000Y-105410000D03*
D13*
X97790000Y-118110000D03*
D15*
X105410000Y-118110000D03*
X105410000Y-133350000D03*
X97790000Y-133350000D03*
D20*
X172720000Y-114100000D03*
X172720000Y-109220000D03*
M02*
