%TF.GenerationSoftware,KiCad,Pcbnew,(5.1.6-0-10_14)*%
%TF.CreationDate,2021-04-25T21:39:23+02:00*%
%TF.ProjectId,Z80_Dev_Board,5a38305f-4465-4765-9f42-6f6172642e6b,rev?*%
%TF.SameCoordinates,Original*%
%TF.FileFunction,Soldermask,Top*%
%TF.FilePolarity,Negative*%
%FSLAX46Y46*%
G04 Gerber Fmt 4.6, Leading zero omitted, Abs format (unit mm)*
G04 Created by KiCad (PCBNEW (5.1.6-0-10_14)) date 2021-04-25 21:39:23*
%MOMM*%
%LPD*%
G01*
G04 APERTURE LIST*
%ADD10O,1.800000X1.800000*%
%ADD11R,1.800000X1.800000*%
%ADD12O,1.700000X1.700000*%
%ADD13R,1.700000X1.700000*%
%ADD14C,2.900000*%
%ADD15C,1.700000*%
%ADD16R,1.900000X1.900000*%
%ADD17C,1.900000*%
%ADD18R,1.522400X1.522400*%
%ADD19C,1.522400*%
%ADD20C,1.600000*%
G04 APERTURE END LIST*
D10*
X181610000Y-137160000D03*
X184150000Y-137160000D03*
X181610000Y-134620000D03*
X184150000Y-134620000D03*
X181610000Y-132080000D03*
X184150000Y-132080000D03*
X181610000Y-129540000D03*
X184150000Y-129540000D03*
X181610000Y-127000000D03*
X184150000Y-127000000D03*
X181610000Y-124460000D03*
X184150000Y-124460000D03*
X181610000Y-121920000D03*
X184150000Y-121920000D03*
X181610000Y-119380000D03*
X184150000Y-119380000D03*
X181610000Y-116840000D03*
X184150000Y-116840000D03*
X181610000Y-114300000D03*
X184150000Y-114300000D03*
X181610000Y-111760000D03*
X184150000Y-111760000D03*
X181610000Y-109220000D03*
X184150000Y-109220000D03*
X181610000Y-106680000D03*
X184150000Y-106680000D03*
X181610000Y-104140000D03*
X184150000Y-104140000D03*
X181610000Y-101600000D03*
X184150000Y-101600000D03*
X181610000Y-99060000D03*
X184150000Y-99060000D03*
X181610000Y-96520000D03*
X184150000Y-96520000D03*
X181610000Y-93980000D03*
X184150000Y-93980000D03*
X181610000Y-91440000D03*
X184150000Y-91440000D03*
X181610000Y-88900000D03*
X184150000Y-88900000D03*
X181610000Y-86360000D03*
X184150000Y-86360000D03*
X181610000Y-83820000D03*
X184150000Y-83820000D03*
X181610000Y-81280000D03*
X184150000Y-81280000D03*
X181610000Y-78740000D03*
X184150000Y-78740000D03*
X181610000Y-76200000D03*
X184150000Y-76200000D03*
X181610000Y-73660000D03*
X184150000Y-73660000D03*
X181610000Y-71120000D03*
X184150000Y-71120000D03*
X181610000Y-68580000D03*
X184150000Y-68580000D03*
X181610000Y-66040000D03*
X184150000Y-66040000D03*
X181610000Y-63500000D03*
X184150000Y-63500000D03*
X181610000Y-60960000D03*
X184150000Y-60960000D03*
X181610000Y-58420000D03*
D11*
X184150000Y-58420000D03*
G36*
G01*
X125185000Y-125117456D02*
X125185000Y-123802544D01*
G75*
G02*
X125452544Y-123535000I267544J0D01*
G01*
X126442456Y-123535000D01*
G75*
G02*
X126710000Y-123802544I0J-267544D01*
G01*
X126710000Y-125117456D01*
G75*
G02*
X126442456Y-125385000I-267544J0D01*
G01*
X125452544Y-125385000D01*
G75*
G02*
X125185000Y-125117456I0J267544D01*
G01*
G37*
G36*
G01*
X122210000Y-125117456D02*
X122210000Y-123802544D01*
G75*
G02*
X122477544Y-123535000I267544J0D01*
G01*
X123467456Y-123535000D01*
G75*
G02*
X123735000Y-123802544I0J-267544D01*
G01*
X123735000Y-125117456D01*
G75*
G02*
X123467456Y-125385000I-267544J0D01*
G01*
X122477544Y-125385000D01*
G75*
G02*
X122210000Y-125117456I0J267544D01*
G01*
G37*
G36*
G01*
X125910000Y-129080000D02*
X125910000Y-128730000D01*
G75*
G02*
X126085000Y-128555000I175000J0D01*
G01*
X127785000Y-128555000D01*
G75*
G02*
X127960000Y-128730000I0J-175000D01*
G01*
X127960000Y-129080000D01*
G75*
G02*
X127785000Y-129255000I-175000J0D01*
G01*
X126085000Y-129255000D01*
G75*
G02*
X125910000Y-129080000I0J175000D01*
G01*
G37*
G36*
G01*
X125910000Y-130350000D02*
X125910000Y-130000000D01*
G75*
G02*
X126085000Y-129825000I175000J0D01*
G01*
X127785000Y-129825000D01*
G75*
G02*
X127960000Y-130000000I0J-175000D01*
G01*
X127960000Y-130350000D01*
G75*
G02*
X127785000Y-130525000I-175000J0D01*
G01*
X126085000Y-130525000D01*
G75*
G02*
X125910000Y-130350000I0J175000D01*
G01*
G37*
G36*
G01*
X125910000Y-131620000D02*
X125910000Y-131270000D01*
G75*
G02*
X126085000Y-131095000I175000J0D01*
G01*
X127785000Y-131095000D01*
G75*
G02*
X127960000Y-131270000I0J-175000D01*
G01*
X127960000Y-131620000D01*
G75*
G02*
X127785000Y-131795000I-175000J0D01*
G01*
X126085000Y-131795000D01*
G75*
G02*
X125910000Y-131620000I0J175000D01*
G01*
G37*
G36*
G01*
X125910000Y-132890000D02*
X125910000Y-132540000D01*
G75*
G02*
X126085000Y-132365000I175000J0D01*
G01*
X127785000Y-132365000D01*
G75*
G02*
X127960000Y-132540000I0J-175000D01*
G01*
X127960000Y-132890000D01*
G75*
G02*
X127785000Y-133065000I-175000J0D01*
G01*
X126085000Y-133065000D01*
G75*
G02*
X125910000Y-132890000I0J175000D01*
G01*
G37*
G36*
G01*
X125910000Y-134160000D02*
X125910000Y-133810000D01*
G75*
G02*
X126085000Y-133635000I175000J0D01*
G01*
X127785000Y-133635000D01*
G75*
G02*
X127960000Y-133810000I0J-175000D01*
G01*
X127960000Y-134160000D01*
G75*
G02*
X127785000Y-134335000I-175000J0D01*
G01*
X126085000Y-134335000D01*
G75*
G02*
X125910000Y-134160000I0J175000D01*
G01*
G37*
G36*
G01*
X125910000Y-135430000D02*
X125910000Y-135080000D01*
G75*
G02*
X126085000Y-134905000I175000J0D01*
G01*
X127785000Y-134905000D01*
G75*
G02*
X127960000Y-135080000I0J-175000D01*
G01*
X127960000Y-135430000D01*
G75*
G02*
X127785000Y-135605000I-175000J0D01*
G01*
X126085000Y-135605000D01*
G75*
G02*
X125910000Y-135430000I0J175000D01*
G01*
G37*
G36*
G01*
X125910000Y-136700000D02*
X125910000Y-136350000D01*
G75*
G02*
X126085000Y-136175000I175000J0D01*
G01*
X127785000Y-136175000D01*
G75*
G02*
X127960000Y-136350000I0J-175000D01*
G01*
X127960000Y-136700000D01*
G75*
G02*
X127785000Y-136875000I-175000J0D01*
G01*
X126085000Y-136875000D01*
G75*
G02*
X125910000Y-136700000I0J175000D01*
G01*
G37*
G36*
G01*
X125910000Y-137970000D02*
X125910000Y-137620000D01*
G75*
G02*
X126085000Y-137445000I175000J0D01*
G01*
X127785000Y-137445000D01*
G75*
G02*
X127960000Y-137620000I0J-175000D01*
G01*
X127960000Y-137970000D01*
G75*
G02*
X127785000Y-138145000I-175000J0D01*
G01*
X126085000Y-138145000D01*
G75*
G02*
X125910000Y-137970000I0J175000D01*
G01*
G37*
G36*
G01*
X120960000Y-137970000D02*
X120960000Y-137620000D01*
G75*
G02*
X121135000Y-137445000I175000J0D01*
G01*
X122835000Y-137445000D01*
G75*
G02*
X123010000Y-137620000I0J-175000D01*
G01*
X123010000Y-137970000D01*
G75*
G02*
X122835000Y-138145000I-175000J0D01*
G01*
X121135000Y-138145000D01*
G75*
G02*
X120960000Y-137970000I0J175000D01*
G01*
G37*
G36*
G01*
X120960000Y-136700000D02*
X120960000Y-136350000D01*
G75*
G02*
X121135000Y-136175000I175000J0D01*
G01*
X122835000Y-136175000D01*
G75*
G02*
X123010000Y-136350000I0J-175000D01*
G01*
X123010000Y-136700000D01*
G75*
G02*
X122835000Y-136875000I-175000J0D01*
G01*
X121135000Y-136875000D01*
G75*
G02*
X120960000Y-136700000I0J175000D01*
G01*
G37*
G36*
G01*
X120960000Y-135430000D02*
X120960000Y-135080000D01*
G75*
G02*
X121135000Y-134905000I175000J0D01*
G01*
X122835000Y-134905000D01*
G75*
G02*
X123010000Y-135080000I0J-175000D01*
G01*
X123010000Y-135430000D01*
G75*
G02*
X122835000Y-135605000I-175000J0D01*
G01*
X121135000Y-135605000D01*
G75*
G02*
X120960000Y-135430000I0J175000D01*
G01*
G37*
G36*
G01*
X120960000Y-134160000D02*
X120960000Y-133810000D01*
G75*
G02*
X121135000Y-133635000I175000J0D01*
G01*
X122835000Y-133635000D01*
G75*
G02*
X123010000Y-133810000I0J-175000D01*
G01*
X123010000Y-134160000D01*
G75*
G02*
X122835000Y-134335000I-175000J0D01*
G01*
X121135000Y-134335000D01*
G75*
G02*
X120960000Y-134160000I0J175000D01*
G01*
G37*
G36*
G01*
X120960000Y-132890000D02*
X120960000Y-132540000D01*
G75*
G02*
X121135000Y-132365000I175000J0D01*
G01*
X122835000Y-132365000D01*
G75*
G02*
X123010000Y-132540000I0J-175000D01*
G01*
X123010000Y-132890000D01*
G75*
G02*
X122835000Y-133065000I-175000J0D01*
G01*
X121135000Y-133065000D01*
G75*
G02*
X120960000Y-132890000I0J175000D01*
G01*
G37*
G36*
G01*
X120960000Y-131620000D02*
X120960000Y-131270000D01*
G75*
G02*
X121135000Y-131095000I175000J0D01*
G01*
X122835000Y-131095000D01*
G75*
G02*
X123010000Y-131270000I0J-175000D01*
G01*
X123010000Y-131620000D01*
G75*
G02*
X122835000Y-131795000I-175000J0D01*
G01*
X121135000Y-131795000D01*
G75*
G02*
X120960000Y-131620000I0J175000D01*
G01*
G37*
G36*
G01*
X120960000Y-130350000D02*
X120960000Y-130000000D01*
G75*
G02*
X121135000Y-129825000I175000J0D01*
G01*
X122835000Y-129825000D01*
G75*
G02*
X123010000Y-130000000I0J-175000D01*
G01*
X123010000Y-130350000D01*
G75*
G02*
X122835000Y-130525000I-175000J0D01*
G01*
X121135000Y-130525000D01*
G75*
G02*
X120960000Y-130350000I0J175000D01*
G01*
G37*
G36*
G01*
X120960000Y-129080000D02*
X120960000Y-128730000D01*
G75*
G02*
X121135000Y-128555000I175000J0D01*
G01*
X122835000Y-128555000D01*
G75*
G02*
X123010000Y-128730000I0J-175000D01*
G01*
X123010000Y-129080000D01*
G75*
G02*
X122835000Y-129255000I-175000J0D01*
G01*
X121135000Y-129255000D01*
G75*
G02*
X120960000Y-129080000I0J175000D01*
G01*
G37*
G36*
G01*
X115750000Y-129080000D02*
X115750000Y-128730000D01*
G75*
G02*
X115925000Y-128555000I175000J0D01*
G01*
X117625000Y-128555000D01*
G75*
G02*
X117800000Y-128730000I0J-175000D01*
G01*
X117800000Y-129080000D01*
G75*
G02*
X117625000Y-129255000I-175000J0D01*
G01*
X115925000Y-129255000D01*
G75*
G02*
X115750000Y-129080000I0J175000D01*
G01*
G37*
G36*
G01*
X115750000Y-130350000D02*
X115750000Y-130000000D01*
G75*
G02*
X115925000Y-129825000I175000J0D01*
G01*
X117625000Y-129825000D01*
G75*
G02*
X117800000Y-130000000I0J-175000D01*
G01*
X117800000Y-130350000D01*
G75*
G02*
X117625000Y-130525000I-175000J0D01*
G01*
X115925000Y-130525000D01*
G75*
G02*
X115750000Y-130350000I0J175000D01*
G01*
G37*
G36*
G01*
X115750000Y-131620000D02*
X115750000Y-131270000D01*
G75*
G02*
X115925000Y-131095000I175000J0D01*
G01*
X117625000Y-131095000D01*
G75*
G02*
X117800000Y-131270000I0J-175000D01*
G01*
X117800000Y-131620000D01*
G75*
G02*
X117625000Y-131795000I-175000J0D01*
G01*
X115925000Y-131795000D01*
G75*
G02*
X115750000Y-131620000I0J175000D01*
G01*
G37*
G36*
G01*
X115750000Y-132890000D02*
X115750000Y-132540000D01*
G75*
G02*
X115925000Y-132365000I175000J0D01*
G01*
X117625000Y-132365000D01*
G75*
G02*
X117800000Y-132540000I0J-175000D01*
G01*
X117800000Y-132890000D01*
G75*
G02*
X117625000Y-133065000I-175000J0D01*
G01*
X115925000Y-133065000D01*
G75*
G02*
X115750000Y-132890000I0J175000D01*
G01*
G37*
G36*
G01*
X115750000Y-134160000D02*
X115750000Y-133810000D01*
G75*
G02*
X115925000Y-133635000I175000J0D01*
G01*
X117625000Y-133635000D01*
G75*
G02*
X117800000Y-133810000I0J-175000D01*
G01*
X117800000Y-134160000D01*
G75*
G02*
X117625000Y-134335000I-175000J0D01*
G01*
X115925000Y-134335000D01*
G75*
G02*
X115750000Y-134160000I0J175000D01*
G01*
G37*
G36*
G01*
X115750000Y-135430000D02*
X115750000Y-135080000D01*
G75*
G02*
X115925000Y-134905000I175000J0D01*
G01*
X117625000Y-134905000D01*
G75*
G02*
X117800000Y-135080000I0J-175000D01*
G01*
X117800000Y-135430000D01*
G75*
G02*
X117625000Y-135605000I-175000J0D01*
G01*
X115925000Y-135605000D01*
G75*
G02*
X115750000Y-135430000I0J175000D01*
G01*
G37*
G36*
G01*
X115750000Y-136700000D02*
X115750000Y-136350000D01*
G75*
G02*
X115925000Y-136175000I175000J0D01*
G01*
X117625000Y-136175000D01*
G75*
G02*
X117800000Y-136350000I0J-175000D01*
G01*
X117800000Y-136700000D01*
G75*
G02*
X117625000Y-136875000I-175000J0D01*
G01*
X115925000Y-136875000D01*
G75*
G02*
X115750000Y-136700000I0J175000D01*
G01*
G37*
G36*
G01*
X115750000Y-137970000D02*
X115750000Y-137620000D01*
G75*
G02*
X115925000Y-137445000I175000J0D01*
G01*
X117625000Y-137445000D01*
G75*
G02*
X117800000Y-137620000I0J-175000D01*
G01*
X117800000Y-137970000D01*
G75*
G02*
X117625000Y-138145000I-175000J0D01*
G01*
X115925000Y-138145000D01*
G75*
G02*
X115750000Y-137970000I0J175000D01*
G01*
G37*
G36*
G01*
X110800000Y-137970000D02*
X110800000Y-137620000D01*
G75*
G02*
X110975000Y-137445000I175000J0D01*
G01*
X112675000Y-137445000D01*
G75*
G02*
X112850000Y-137620000I0J-175000D01*
G01*
X112850000Y-137970000D01*
G75*
G02*
X112675000Y-138145000I-175000J0D01*
G01*
X110975000Y-138145000D01*
G75*
G02*
X110800000Y-137970000I0J175000D01*
G01*
G37*
G36*
G01*
X110800000Y-136700000D02*
X110800000Y-136350000D01*
G75*
G02*
X110975000Y-136175000I175000J0D01*
G01*
X112675000Y-136175000D01*
G75*
G02*
X112850000Y-136350000I0J-175000D01*
G01*
X112850000Y-136700000D01*
G75*
G02*
X112675000Y-136875000I-175000J0D01*
G01*
X110975000Y-136875000D01*
G75*
G02*
X110800000Y-136700000I0J175000D01*
G01*
G37*
G36*
G01*
X110800000Y-135430000D02*
X110800000Y-135080000D01*
G75*
G02*
X110975000Y-134905000I175000J0D01*
G01*
X112675000Y-134905000D01*
G75*
G02*
X112850000Y-135080000I0J-175000D01*
G01*
X112850000Y-135430000D01*
G75*
G02*
X112675000Y-135605000I-175000J0D01*
G01*
X110975000Y-135605000D01*
G75*
G02*
X110800000Y-135430000I0J175000D01*
G01*
G37*
G36*
G01*
X110800000Y-134160000D02*
X110800000Y-133810000D01*
G75*
G02*
X110975000Y-133635000I175000J0D01*
G01*
X112675000Y-133635000D01*
G75*
G02*
X112850000Y-133810000I0J-175000D01*
G01*
X112850000Y-134160000D01*
G75*
G02*
X112675000Y-134335000I-175000J0D01*
G01*
X110975000Y-134335000D01*
G75*
G02*
X110800000Y-134160000I0J175000D01*
G01*
G37*
G36*
G01*
X110800000Y-132890000D02*
X110800000Y-132540000D01*
G75*
G02*
X110975000Y-132365000I175000J0D01*
G01*
X112675000Y-132365000D01*
G75*
G02*
X112850000Y-132540000I0J-175000D01*
G01*
X112850000Y-132890000D01*
G75*
G02*
X112675000Y-133065000I-175000J0D01*
G01*
X110975000Y-133065000D01*
G75*
G02*
X110800000Y-132890000I0J175000D01*
G01*
G37*
G36*
G01*
X110800000Y-131620000D02*
X110800000Y-131270000D01*
G75*
G02*
X110975000Y-131095000I175000J0D01*
G01*
X112675000Y-131095000D01*
G75*
G02*
X112850000Y-131270000I0J-175000D01*
G01*
X112850000Y-131620000D01*
G75*
G02*
X112675000Y-131795000I-175000J0D01*
G01*
X110975000Y-131795000D01*
G75*
G02*
X110800000Y-131620000I0J175000D01*
G01*
G37*
G36*
G01*
X110800000Y-130350000D02*
X110800000Y-130000000D01*
G75*
G02*
X110975000Y-129825000I175000J0D01*
G01*
X112675000Y-129825000D01*
G75*
G02*
X112850000Y-130000000I0J-175000D01*
G01*
X112850000Y-130350000D01*
G75*
G02*
X112675000Y-130525000I-175000J0D01*
G01*
X110975000Y-130525000D01*
G75*
G02*
X110800000Y-130350000I0J175000D01*
G01*
G37*
G36*
G01*
X110800000Y-129080000D02*
X110800000Y-128730000D01*
G75*
G02*
X110975000Y-128555000I175000J0D01*
G01*
X112675000Y-128555000D01*
G75*
G02*
X112850000Y-128730000I0J-175000D01*
G01*
X112850000Y-129080000D01*
G75*
G02*
X112675000Y-129255000I-175000J0D01*
G01*
X110975000Y-129255000D01*
G75*
G02*
X110800000Y-129080000I0J175000D01*
G01*
G37*
D12*
X167640000Y-60960000D03*
X160020000Y-93980000D03*
X167640000Y-63500000D03*
X160020000Y-91440000D03*
X167640000Y-66040000D03*
X160020000Y-88900000D03*
X167640000Y-68580000D03*
X160020000Y-86360000D03*
X167640000Y-71120000D03*
X160020000Y-83820000D03*
X167640000Y-73660000D03*
X160020000Y-81280000D03*
X167640000Y-76200000D03*
X160020000Y-78740000D03*
X167640000Y-78740000D03*
X160020000Y-76200000D03*
X167640000Y-81280000D03*
X160020000Y-73660000D03*
X167640000Y-83820000D03*
X160020000Y-71120000D03*
X167640000Y-86360000D03*
X160020000Y-68580000D03*
X167640000Y-88900000D03*
X160020000Y-66040000D03*
X167640000Y-91440000D03*
X160020000Y-63500000D03*
X167640000Y-93980000D03*
D13*
X160020000Y-60960000D03*
G36*
G01*
X108125000Y-92530000D02*
X107775000Y-92530000D01*
G75*
G02*
X107600000Y-92355000I0J175000D01*
G01*
X107600000Y-90655000D01*
G75*
G02*
X107775000Y-90480000I175000J0D01*
G01*
X108125000Y-90480000D01*
G75*
G02*
X108300000Y-90655000I0J-175000D01*
G01*
X108300000Y-92355000D01*
G75*
G02*
X108125000Y-92530000I-175000J0D01*
G01*
G37*
G36*
G01*
X109395000Y-92530000D02*
X109045000Y-92530000D01*
G75*
G02*
X108870000Y-92355000I0J175000D01*
G01*
X108870000Y-90655000D01*
G75*
G02*
X109045000Y-90480000I175000J0D01*
G01*
X109395000Y-90480000D01*
G75*
G02*
X109570000Y-90655000I0J-175000D01*
G01*
X109570000Y-92355000D01*
G75*
G02*
X109395000Y-92530000I-175000J0D01*
G01*
G37*
G36*
G01*
X110665000Y-92530000D02*
X110315000Y-92530000D01*
G75*
G02*
X110140000Y-92355000I0J175000D01*
G01*
X110140000Y-90655000D01*
G75*
G02*
X110315000Y-90480000I175000J0D01*
G01*
X110665000Y-90480000D01*
G75*
G02*
X110840000Y-90655000I0J-175000D01*
G01*
X110840000Y-92355000D01*
G75*
G02*
X110665000Y-92530000I-175000J0D01*
G01*
G37*
G36*
G01*
X111935000Y-92530000D02*
X111585000Y-92530000D01*
G75*
G02*
X111410000Y-92355000I0J175000D01*
G01*
X111410000Y-90655000D01*
G75*
G02*
X111585000Y-90480000I175000J0D01*
G01*
X111935000Y-90480000D01*
G75*
G02*
X112110000Y-90655000I0J-175000D01*
G01*
X112110000Y-92355000D01*
G75*
G02*
X111935000Y-92530000I-175000J0D01*
G01*
G37*
G36*
G01*
X113205000Y-92530000D02*
X112855000Y-92530000D01*
G75*
G02*
X112680000Y-92355000I0J175000D01*
G01*
X112680000Y-90655000D01*
G75*
G02*
X112855000Y-90480000I175000J0D01*
G01*
X113205000Y-90480000D01*
G75*
G02*
X113380000Y-90655000I0J-175000D01*
G01*
X113380000Y-92355000D01*
G75*
G02*
X113205000Y-92530000I-175000J0D01*
G01*
G37*
G36*
G01*
X114475000Y-92530000D02*
X114125000Y-92530000D01*
G75*
G02*
X113950000Y-92355000I0J175000D01*
G01*
X113950000Y-90655000D01*
G75*
G02*
X114125000Y-90480000I175000J0D01*
G01*
X114475000Y-90480000D01*
G75*
G02*
X114650000Y-90655000I0J-175000D01*
G01*
X114650000Y-92355000D01*
G75*
G02*
X114475000Y-92530000I-175000J0D01*
G01*
G37*
G36*
G01*
X115745000Y-92530000D02*
X115395000Y-92530000D01*
G75*
G02*
X115220000Y-92355000I0J175000D01*
G01*
X115220000Y-90655000D01*
G75*
G02*
X115395000Y-90480000I175000J0D01*
G01*
X115745000Y-90480000D01*
G75*
G02*
X115920000Y-90655000I0J-175000D01*
G01*
X115920000Y-92355000D01*
G75*
G02*
X115745000Y-92530000I-175000J0D01*
G01*
G37*
G36*
G01*
X115745000Y-97480000D02*
X115395000Y-97480000D01*
G75*
G02*
X115220000Y-97305000I0J175000D01*
G01*
X115220000Y-95605000D01*
G75*
G02*
X115395000Y-95430000I175000J0D01*
G01*
X115745000Y-95430000D01*
G75*
G02*
X115920000Y-95605000I0J-175000D01*
G01*
X115920000Y-97305000D01*
G75*
G02*
X115745000Y-97480000I-175000J0D01*
G01*
G37*
G36*
G01*
X114475000Y-97480000D02*
X114125000Y-97480000D01*
G75*
G02*
X113950000Y-97305000I0J175000D01*
G01*
X113950000Y-95605000D01*
G75*
G02*
X114125000Y-95430000I175000J0D01*
G01*
X114475000Y-95430000D01*
G75*
G02*
X114650000Y-95605000I0J-175000D01*
G01*
X114650000Y-97305000D01*
G75*
G02*
X114475000Y-97480000I-175000J0D01*
G01*
G37*
G36*
G01*
X113205000Y-97480000D02*
X112855000Y-97480000D01*
G75*
G02*
X112680000Y-97305000I0J175000D01*
G01*
X112680000Y-95605000D01*
G75*
G02*
X112855000Y-95430000I175000J0D01*
G01*
X113205000Y-95430000D01*
G75*
G02*
X113380000Y-95605000I0J-175000D01*
G01*
X113380000Y-97305000D01*
G75*
G02*
X113205000Y-97480000I-175000J0D01*
G01*
G37*
G36*
G01*
X111935000Y-97480000D02*
X111585000Y-97480000D01*
G75*
G02*
X111410000Y-97305000I0J175000D01*
G01*
X111410000Y-95605000D01*
G75*
G02*
X111585000Y-95430000I175000J0D01*
G01*
X111935000Y-95430000D01*
G75*
G02*
X112110000Y-95605000I0J-175000D01*
G01*
X112110000Y-97305000D01*
G75*
G02*
X111935000Y-97480000I-175000J0D01*
G01*
G37*
G36*
G01*
X110665000Y-97480000D02*
X110315000Y-97480000D01*
G75*
G02*
X110140000Y-97305000I0J175000D01*
G01*
X110140000Y-95605000D01*
G75*
G02*
X110315000Y-95430000I175000J0D01*
G01*
X110665000Y-95430000D01*
G75*
G02*
X110840000Y-95605000I0J-175000D01*
G01*
X110840000Y-97305000D01*
G75*
G02*
X110665000Y-97480000I-175000J0D01*
G01*
G37*
G36*
G01*
X109395000Y-97480000D02*
X109045000Y-97480000D01*
G75*
G02*
X108870000Y-97305000I0J175000D01*
G01*
X108870000Y-95605000D01*
G75*
G02*
X109045000Y-95430000I175000J0D01*
G01*
X109395000Y-95430000D01*
G75*
G02*
X109570000Y-95605000I0J-175000D01*
G01*
X109570000Y-97305000D01*
G75*
G02*
X109395000Y-97480000I-175000J0D01*
G01*
G37*
G36*
G01*
X108125000Y-97480000D02*
X107775000Y-97480000D01*
G75*
G02*
X107600000Y-97305000I0J175000D01*
G01*
X107600000Y-95605000D01*
G75*
G02*
X107775000Y-95430000I175000J0D01*
G01*
X108125000Y-95430000D01*
G75*
G02*
X108300000Y-95605000I0J-175000D01*
G01*
X108300000Y-97305000D01*
G75*
G02*
X108125000Y-97480000I-175000J0D01*
G01*
G37*
D12*
X152400000Y-60960000D03*
X144780000Y-93980000D03*
X152400000Y-63500000D03*
X144780000Y-91440000D03*
X152400000Y-66040000D03*
X144780000Y-88900000D03*
X152400000Y-68580000D03*
X144780000Y-86360000D03*
X152400000Y-71120000D03*
X144780000Y-83820000D03*
X152400000Y-73660000D03*
X144780000Y-81280000D03*
X152400000Y-76200000D03*
X144780000Y-78740000D03*
X152400000Y-78740000D03*
X144780000Y-76200000D03*
X152400000Y-81280000D03*
X144780000Y-73660000D03*
X152400000Y-83820000D03*
X144780000Y-71120000D03*
X152400000Y-86360000D03*
X144780000Y-68580000D03*
X152400000Y-88900000D03*
X144780000Y-66040000D03*
X152400000Y-91440000D03*
X144780000Y-63500000D03*
X152400000Y-93980000D03*
D13*
X144780000Y-60960000D03*
G36*
G01*
X108125000Y-62050000D02*
X107775000Y-62050000D01*
G75*
G02*
X107600000Y-61875000I0J175000D01*
G01*
X107600000Y-60175000D01*
G75*
G02*
X107775000Y-60000000I175000J0D01*
G01*
X108125000Y-60000000D01*
G75*
G02*
X108300000Y-60175000I0J-175000D01*
G01*
X108300000Y-61875000D01*
G75*
G02*
X108125000Y-62050000I-175000J0D01*
G01*
G37*
G36*
G01*
X109395000Y-62050000D02*
X109045000Y-62050000D01*
G75*
G02*
X108870000Y-61875000I0J175000D01*
G01*
X108870000Y-60175000D01*
G75*
G02*
X109045000Y-60000000I175000J0D01*
G01*
X109395000Y-60000000D01*
G75*
G02*
X109570000Y-60175000I0J-175000D01*
G01*
X109570000Y-61875000D01*
G75*
G02*
X109395000Y-62050000I-175000J0D01*
G01*
G37*
G36*
G01*
X110665000Y-62050000D02*
X110315000Y-62050000D01*
G75*
G02*
X110140000Y-61875000I0J175000D01*
G01*
X110140000Y-60175000D01*
G75*
G02*
X110315000Y-60000000I175000J0D01*
G01*
X110665000Y-60000000D01*
G75*
G02*
X110840000Y-60175000I0J-175000D01*
G01*
X110840000Y-61875000D01*
G75*
G02*
X110665000Y-62050000I-175000J0D01*
G01*
G37*
G36*
G01*
X111935000Y-62050000D02*
X111585000Y-62050000D01*
G75*
G02*
X111410000Y-61875000I0J175000D01*
G01*
X111410000Y-60175000D01*
G75*
G02*
X111585000Y-60000000I175000J0D01*
G01*
X111935000Y-60000000D01*
G75*
G02*
X112110000Y-60175000I0J-175000D01*
G01*
X112110000Y-61875000D01*
G75*
G02*
X111935000Y-62050000I-175000J0D01*
G01*
G37*
G36*
G01*
X113205000Y-62050000D02*
X112855000Y-62050000D01*
G75*
G02*
X112680000Y-61875000I0J175000D01*
G01*
X112680000Y-60175000D01*
G75*
G02*
X112855000Y-60000000I175000J0D01*
G01*
X113205000Y-60000000D01*
G75*
G02*
X113380000Y-60175000I0J-175000D01*
G01*
X113380000Y-61875000D01*
G75*
G02*
X113205000Y-62050000I-175000J0D01*
G01*
G37*
G36*
G01*
X114475000Y-62050000D02*
X114125000Y-62050000D01*
G75*
G02*
X113950000Y-61875000I0J175000D01*
G01*
X113950000Y-60175000D01*
G75*
G02*
X114125000Y-60000000I175000J0D01*
G01*
X114475000Y-60000000D01*
G75*
G02*
X114650000Y-60175000I0J-175000D01*
G01*
X114650000Y-61875000D01*
G75*
G02*
X114475000Y-62050000I-175000J0D01*
G01*
G37*
G36*
G01*
X115745000Y-62050000D02*
X115395000Y-62050000D01*
G75*
G02*
X115220000Y-61875000I0J175000D01*
G01*
X115220000Y-60175000D01*
G75*
G02*
X115395000Y-60000000I175000J0D01*
G01*
X115745000Y-60000000D01*
G75*
G02*
X115920000Y-60175000I0J-175000D01*
G01*
X115920000Y-61875000D01*
G75*
G02*
X115745000Y-62050000I-175000J0D01*
G01*
G37*
G36*
G01*
X115745000Y-67000000D02*
X115395000Y-67000000D01*
G75*
G02*
X115220000Y-66825000I0J175000D01*
G01*
X115220000Y-65125000D01*
G75*
G02*
X115395000Y-64950000I175000J0D01*
G01*
X115745000Y-64950000D01*
G75*
G02*
X115920000Y-65125000I0J-175000D01*
G01*
X115920000Y-66825000D01*
G75*
G02*
X115745000Y-67000000I-175000J0D01*
G01*
G37*
G36*
G01*
X114475000Y-67000000D02*
X114125000Y-67000000D01*
G75*
G02*
X113950000Y-66825000I0J175000D01*
G01*
X113950000Y-65125000D01*
G75*
G02*
X114125000Y-64950000I175000J0D01*
G01*
X114475000Y-64950000D01*
G75*
G02*
X114650000Y-65125000I0J-175000D01*
G01*
X114650000Y-66825000D01*
G75*
G02*
X114475000Y-67000000I-175000J0D01*
G01*
G37*
G36*
G01*
X113205000Y-67000000D02*
X112855000Y-67000000D01*
G75*
G02*
X112680000Y-66825000I0J175000D01*
G01*
X112680000Y-65125000D01*
G75*
G02*
X112855000Y-64950000I175000J0D01*
G01*
X113205000Y-64950000D01*
G75*
G02*
X113380000Y-65125000I0J-175000D01*
G01*
X113380000Y-66825000D01*
G75*
G02*
X113205000Y-67000000I-175000J0D01*
G01*
G37*
G36*
G01*
X111935000Y-67000000D02*
X111585000Y-67000000D01*
G75*
G02*
X111410000Y-66825000I0J175000D01*
G01*
X111410000Y-65125000D01*
G75*
G02*
X111585000Y-64950000I175000J0D01*
G01*
X111935000Y-64950000D01*
G75*
G02*
X112110000Y-65125000I0J-175000D01*
G01*
X112110000Y-66825000D01*
G75*
G02*
X111935000Y-67000000I-175000J0D01*
G01*
G37*
G36*
G01*
X110665000Y-67000000D02*
X110315000Y-67000000D01*
G75*
G02*
X110140000Y-66825000I0J175000D01*
G01*
X110140000Y-65125000D01*
G75*
G02*
X110315000Y-64950000I175000J0D01*
G01*
X110665000Y-64950000D01*
G75*
G02*
X110840000Y-65125000I0J-175000D01*
G01*
X110840000Y-66825000D01*
G75*
G02*
X110665000Y-67000000I-175000J0D01*
G01*
G37*
G36*
G01*
X109395000Y-67000000D02*
X109045000Y-67000000D01*
G75*
G02*
X108870000Y-66825000I0J175000D01*
G01*
X108870000Y-65125000D01*
G75*
G02*
X109045000Y-64950000I175000J0D01*
G01*
X109395000Y-64950000D01*
G75*
G02*
X109570000Y-65125000I0J-175000D01*
G01*
X109570000Y-66825000D01*
G75*
G02*
X109395000Y-67000000I-175000J0D01*
G01*
G37*
G36*
G01*
X108125000Y-67000000D02*
X107775000Y-67000000D01*
G75*
G02*
X107600000Y-66825000I0J175000D01*
G01*
X107600000Y-65125000D01*
G75*
G02*
X107775000Y-64950000I175000J0D01*
G01*
X108125000Y-64950000D01*
G75*
G02*
X108300000Y-65125000I0J-175000D01*
G01*
X108300000Y-66825000D01*
G75*
G02*
X108125000Y-67000000I-175000J0D01*
G01*
G37*
G36*
G01*
X108125000Y-72210000D02*
X107775000Y-72210000D01*
G75*
G02*
X107600000Y-72035000I0J175000D01*
G01*
X107600000Y-70335000D01*
G75*
G02*
X107775000Y-70160000I175000J0D01*
G01*
X108125000Y-70160000D01*
G75*
G02*
X108300000Y-70335000I0J-175000D01*
G01*
X108300000Y-72035000D01*
G75*
G02*
X108125000Y-72210000I-175000J0D01*
G01*
G37*
G36*
G01*
X109395000Y-72210000D02*
X109045000Y-72210000D01*
G75*
G02*
X108870000Y-72035000I0J175000D01*
G01*
X108870000Y-70335000D01*
G75*
G02*
X109045000Y-70160000I175000J0D01*
G01*
X109395000Y-70160000D01*
G75*
G02*
X109570000Y-70335000I0J-175000D01*
G01*
X109570000Y-72035000D01*
G75*
G02*
X109395000Y-72210000I-175000J0D01*
G01*
G37*
G36*
G01*
X110665000Y-72210000D02*
X110315000Y-72210000D01*
G75*
G02*
X110140000Y-72035000I0J175000D01*
G01*
X110140000Y-70335000D01*
G75*
G02*
X110315000Y-70160000I175000J0D01*
G01*
X110665000Y-70160000D01*
G75*
G02*
X110840000Y-70335000I0J-175000D01*
G01*
X110840000Y-72035000D01*
G75*
G02*
X110665000Y-72210000I-175000J0D01*
G01*
G37*
G36*
G01*
X111935000Y-72210000D02*
X111585000Y-72210000D01*
G75*
G02*
X111410000Y-72035000I0J175000D01*
G01*
X111410000Y-70335000D01*
G75*
G02*
X111585000Y-70160000I175000J0D01*
G01*
X111935000Y-70160000D01*
G75*
G02*
X112110000Y-70335000I0J-175000D01*
G01*
X112110000Y-72035000D01*
G75*
G02*
X111935000Y-72210000I-175000J0D01*
G01*
G37*
G36*
G01*
X113205000Y-72210000D02*
X112855000Y-72210000D01*
G75*
G02*
X112680000Y-72035000I0J175000D01*
G01*
X112680000Y-70335000D01*
G75*
G02*
X112855000Y-70160000I175000J0D01*
G01*
X113205000Y-70160000D01*
G75*
G02*
X113380000Y-70335000I0J-175000D01*
G01*
X113380000Y-72035000D01*
G75*
G02*
X113205000Y-72210000I-175000J0D01*
G01*
G37*
G36*
G01*
X114475000Y-72210000D02*
X114125000Y-72210000D01*
G75*
G02*
X113950000Y-72035000I0J175000D01*
G01*
X113950000Y-70335000D01*
G75*
G02*
X114125000Y-70160000I175000J0D01*
G01*
X114475000Y-70160000D01*
G75*
G02*
X114650000Y-70335000I0J-175000D01*
G01*
X114650000Y-72035000D01*
G75*
G02*
X114475000Y-72210000I-175000J0D01*
G01*
G37*
G36*
G01*
X115745000Y-72210000D02*
X115395000Y-72210000D01*
G75*
G02*
X115220000Y-72035000I0J175000D01*
G01*
X115220000Y-70335000D01*
G75*
G02*
X115395000Y-70160000I175000J0D01*
G01*
X115745000Y-70160000D01*
G75*
G02*
X115920000Y-70335000I0J-175000D01*
G01*
X115920000Y-72035000D01*
G75*
G02*
X115745000Y-72210000I-175000J0D01*
G01*
G37*
G36*
G01*
X115745000Y-77160000D02*
X115395000Y-77160000D01*
G75*
G02*
X115220000Y-76985000I0J175000D01*
G01*
X115220000Y-75285000D01*
G75*
G02*
X115395000Y-75110000I175000J0D01*
G01*
X115745000Y-75110000D01*
G75*
G02*
X115920000Y-75285000I0J-175000D01*
G01*
X115920000Y-76985000D01*
G75*
G02*
X115745000Y-77160000I-175000J0D01*
G01*
G37*
G36*
G01*
X114475000Y-77160000D02*
X114125000Y-77160000D01*
G75*
G02*
X113950000Y-76985000I0J175000D01*
G01*
X113950000Y-75285000D01*
G75*
G02*
X114125000Y-75110000I175000J0D01*
G01*
X114475000Y-75110000D01*
G75*
G02*
X114650000Y-75285000I0J-175000D01*
G01*
X114650000Y-76985000D01*
G75*
G02*
X114475000Y-77160000I-175000J0D01*
G01*
G37*
G36*
G01*
X113205000Y-77160000D02*
X112855000Y-77160000D01*
G75*
G02*
X112680000Y-76985000I0J175000D01*
G01*
X112680000Y-75285000D01*
G75*
G02*
X112855000Y-75110000I175000J0D01*
G01*
X113205000Y-75110000D01*
G75*
G02*
X113380000Y-75285000I0J-175000D01*
G01*
X113380000Y-76985000D01*
G75*
G02*
X113205000Y-77160000I-175000J0D01*
G01*
G37*
G36*
G01*
X111935000Y-77160000D02*
X111585000Y-77160000D01*
G75*
G02*
X111410000Y-76985000I0J175000D01*
G01*
X111410000Y-75285000D01*
G75*
G02*
X111585000Y-75110000I175000J0D01*
G01*
X111935000Y-75110000D01*
G75*
G02*
X112110000Y-75285000I0J-175000D01*
G01*
X112110000Y-76985000D01*
G75*
G02*
X111935000Y-77160000I-175000J0D01*
G01*
G37*
G36*
G01*
X110665000Y-77160000D02*
X110315000Y-77160000D01*
G75*
G02*
X110140000Y-76985000I0J175000D01*
G01*
X110140000Y-75285000D01*
G75*
G02*
X110315000Y-75110000I175000J0D01*
G01*
X110665000Y-75110000D01*
G75*
G02*
X110840000Y-75285000I0J-175000D01*
G01*
X110840000Y-76985000D01*
G75*
G02*
X110665000Y-77160000I-175000J0D01*
G01*
G37*
G36*
G01*
X109395000Y-77160000D02*
X109045000Y-77160000D01*
G75*
G02*
X108870000Y-76985000I0J175000D01*
G01*
X108870000Y-75285000D01*
G75*
G02*
X109045000Y-75110000I175000J0D01*
G01*
X109395000Y-75110000D01*
G75*
G02*
X109570000Y-75285000I0J-175000D01*
G01*
X109570000Y-76985000D01*
G75*
G02*
X109395000Y-77160000I-175000J0D01*
G01*
G37*
G36*
G01*
X108125000Y-77160000D02*
X107775000Y-77160000D01*
G75*
G02*
X107600000Y-76985000I0J175000D01*
G01*
X107600000Y-75285000D01*
G75*
G02*
X107775000Y-75110000I175000J0D01*
G01*
X108125000Y-75110000D01*
G75*
G02*
X108300000Y-75285000I0J-175000D01*
G01*
X108300000Y-76985000D01*
G75*
G02*
X108125000Y-77160000I-175000J0D01*
G01*
G37*
G36*
G01*
X108125000Y-82370000D02*
X107775000Y-82370000D01*
G75*
G02*
X107600000Y-82195000I0J175000D01*
G01*
X107600000Y-80495000D01*
G75*
G02*
X107775000Y-80320000I175000J0D01*
G01*
X108125000Y-80320000D01*
G75*
G02*
X108300000Y-80495000I0J-175000D01*
G01*
X108300000Y-82195000D01*
G75*
G02*
X108125000Y-82370000I-175000J0D01*
G01*
G37*
G36*
G01*
X109395000Y-82370000D02*
X109045000Y-82370000D01*
G75*
G02*
X108870000Y-82195000I0J175000D01*
G01*
X108870000Y-80495000D01*
G75*
G02*
X109045000Y-80320000I175000J0D01*
G01*
X109395000Y-80320000D01*
G75*
G02*
X109570000Y-80495000I0J-175000D01*
G01*
X109570000Y-82195000D01*
G75*
G02*
X109395000Y-82370000I-175000J0D01*
G01*
G37*
G36*
G01*
X110665000Y-82370000D02*
X110315000Y-82370000D01*
G75*
G02*
X110140000Y-82195000I0J175000D01*
G01*
X110140000Y-80495000D01*
G75*
G02*
X110315000Y-80320000I175000J0D01*
G01*
X110665000Y-80320000D01*
G75*
G02*
X110840000Y-80495000I0J-175000D01*
G01*
X110840000Y-82195000D01*
G75*
G02*
X110665000Y-82370000I-175000J0D01*
G01*
G37*
G36*
G01*
X111935000Y-82370000D02*
X111585000Y-82370000D01*
G75*
G02*
X111410000Y-82195000I0J175000D01*
G01*
X111410000Y-80495000D01*
G75*
G02*
X111585000Y-80320000I175000J0D01*
G01*
X111935000Y-80320000D01*
G75*
G02*
X112110000Y-80495000I0J-175000D01*
G01*
X112110000Y-82195000D01*
G75*
G02*
X111935000Y-82370000I-175000J0D01*
G01*
G37*
G36*
G01*
X113205000Y-82370000D02*
X112855000Y-82370000D01*
G75*
G02*
X112680000Y-82195000I0J175000D01*
G01*
X112680000Y-80495000D01*
G75*
G02*
X112855000Y-80320000I175000J0D01*
G01*
X113205000Y-80320000D01*
G75*
G02*
X113380000Y-80495000I0J-175000D01*
G01*
X113380000Y-82195000D01*
G75*
G02*
X113205000Y-82370000I-175000J0D01*
G01*
G37*
G36*
G01*
X114475000Y-82370000D02*
X114125000Y-82370000D01*
G75*
G02*
X113950000Y-82195000I0J175000D01*
G01*
X113950000Y-80495000D01*
G75*
G02*
X114125000Y-80320000I175000J0D01*
G01*
X114475000Y-80320000D01*
G75*
G02*
X114650000Y-80495000I0J-175000D01*
G01*
X114650000Y-82195000D01*
G75*
G02*
X114475000Y-82370000I-175000J0D01*
G01*
G37*
G36*
G01*
X115745000Y-82370000D02*
X115395000Y-82370000D01*
G75*
G02*
X115220000Y-82195000I0J175000D01*
G01*
X115220000Y-80495000D01*
G75*
G02*
X115395000Y-80320000I175000J0D01*
G01*
X115745000Y-80320000D01*
G75*
G02*
X115920000Y-80495000I0J-175000D01*
G01*
X115920000Y-82195000D01*
G75*
G02*
X115745000Y-82370000I-175000J0D01*
G01*
G37*
G36*
G01*
X115745000Y-87320000D02*
X115395000Y-87320000D01*
G75*
G02*
X115220000Y-87145000I0J175000D01*
G01*
X115220000Y-85445000D01*
G75*
G02*
X115395000Y-85270000I175000J0D01*
G01*
X115745000Y-85270000D01*
G75*
G02*
X115920000Y-85445000I0J-175000D01*
G01*
X115920000Y-87145000D01*
G75*
G02*
X115745000Y-87320000I-175000J0D01*
G01*
G37*
G36*
G01*
X114475000Y-87320000D02*
X114125000Y-87320000D01*
G75*
G02*
X113950000Y-87145000I0J175000D01*
G01*
X113950000Y-85445000D01*
G75*
G02*
X114125000Y-85270000I175000J0D01*
G01*
X114475000Y-85270000D01*
G75*
G02*
X114650000Y-85445000I0J-175000D01*
G01*
X114650000Y-87145000D01*
G75*
G02*
X114475000Y-87320000I-175000J0D01*
G01*
G37*
G36*
G01*
X113205000Y-87320000D02*
X112855000Y-87320000D01*
G75*
G02*
X112680000Y-87145000I0J175000D01*
G01*
X112680000Y-85445000D01*
G75*
G02*
X112855000Y-85270000I175000J0D01*
G01*
X113205000Y-85270000D01*
G75*
G02*
X113380000Y-85445000I0J-175000D01*
G01*
X113380000Y-87145000D01*
G75*
G02*
X113205000Y-87320000I-175000J0D01*
G01*
G37*
G36*
G01*
X111935000Y-87320000D02*
X111585000Y-87320000D01*
G75*
G02*
X111410000Y-87145000I0J175000D01*
G01*
X111410000Y-85445000D01*
G75*
G02*
X111585000Y-85270000I175000J0D01*
G01*
X111935000Y-85270000D01*
G75*
G02*
X112110000Y-85445000I0J-175000D01*
G01*
X112110000Y-87145000D01*
G75*
G02*
X111935000Y-87320000I-175000J0D01*
G01*
G37*
G36*
G01*
X110665000Y-87320000D02*
X110315000Y-87320000D01*
G75*
G02*
X110140000Y-87145000I0J175000D01*
G01*
X110140000Y-85445000D01*
G75*
G02*
X110315000Y-85270000I175000J0D01*
G01*
X110665000Y-85270000D01*
G75*
G02*
X110840000Y-85445000I0J-175000D01*
G01*
X110840000Y-87145000D01*
G75*
G02*
X110665000Y-87320000I-175000J0D01*
G01*
G37*
G36*
G01*
X109395000Y-87320000D02*
X109045000Y-87320000D01*
G75*
G02*
X108870000Y-87145000I0J175000D01*
G01*
X108870000Y-85445000D01*
G75*
G02*
X109045000Y-85270000I175000J0D01*
G01*
X109395000Y-85270000D01*
G75*
G02*
X109570000Y-85445000I0J-175000D01*
G01*
X109570000Y-87145000D01*
G75*
G02*
X109395000Y-87320000I-175000J0D01*
G01*
G37*
G36*
G01*
X108125000Y-87320000D02*
X107775000Y-87320000D01*
G75*
G02*
X107600000Y-87145000I0J175000D01*
G01*
X107600000Y-85445000D01*
G75*
G02*
X107775000Y-85270000I175000J0D01*
G01*
X108125000Y-85270000D01*
G75*
G02*
X108300000Y-85445000I0J-175000D01*
G01*
X108300000Y-87145000D01*
G75*
G02*
X108125000Y-87320000I-175000J0D01*
G01*
G37*
D12*
X139700000Y-119380000D03*
X137160000Y-119380000D03*
X134620000Y-119380000D03*
X132080000Y-119380000D03*
X129540000Y-119380000D03*
X127000000Y-119380000D03*
X124460000Y-119380000D03*
X121920000Y-119380000D03*
D13*
X119380000Y-119380000D03*
D12*
X139700000Y-114300000D03*
X137160000Y-114300000D03*
X134620000Y-114300000D03*
X132080000Y-114300000D03*
X129540000Y-114300000D03*
X127000000Y-114300000D03*
X124460000Y-114300000D03*
X121920000Y-114300000D03*
D13*
X119380000Y-114300000D03*
G36*
G01*
X104797456Y-72935000D02*
X103482544Y-72935000D01*
G75*
G02*
X103215000Y-72667456I0J267544D01*
G01*
X103215000Y-71677544D01*
G75*
G02*
X103482544Y-71410000I267544J0D01*
G01*
X104797456Y-71410000D01*
G75*
G02*
X105065000Y-71677544I0J-267544D01*
G01*
X105065000Y-72667456D01*
G75*
G02*
X104797456Y-72935000I-267544J0D01*
G01*
G37*
G36*
G01*
X104797456Y-75910000D02*
X103482544Y-75910000D01*
G75*
G02*
X103215000Y-75642456I0J267544D01*
G01*
X103215000Y-74652544D01*
G75*
G02*
X103482544Y-74385000I267544J0D01*
G01*
X104797456Y-74385000D01*
G75*
G02*
X105065000Y-74652544I0J-267544D01*
G01*
X105065000Y-75642456D01*
G75*
G02*
X104797456Y-75910000I-267544J0D01*
G01*
G37*
G36*
G01*
X103482544Y-64225000D02*
X104797456Y-64225000D01*
G75*
G02*
X105065000Y-64492544I0J-267544D01*
G01*
X105065000Y-65482456D01*
G75*
G02*
X104797456Y-65750000I-267544J0D01*
G01*
X103482544Y-65750000D01*
G75*
G02*
X103215000Y-65482456I0J267544D01*
G01*
X103215000Y-64492544D01*
G75*
G02*
X103482544Y-64225000I267544J0D01*
G01*
G37*
G36*
G01*
X103482544Y-61250000D02*
X104797456Y-61250000D01*
G75*
G02*
X105065000Y-61517544I0J-267544D01*
G01*
X105065000Y-62507456D01*
G75*
G02*
X104797456Y-62775000I-267544J0D01*
G01*
X103482544Y-62775000D01*
G75*
G02*
X103215000Y-62507456I0J267544D01*
G01*
X103215000Y-61517544D01*
G75*
G02*
X103482544Y-61250000I267544J0D01*
G01*
G37*
G36*
G01*
X104797456Y-83095000D02*
X103482544Y-83095000D01*
G75*
G02*
X103215000Y-82827456I0J267544D01*
G01*
X103215000Y-81837544D01*
G75*
G02*
X103482544Y-81570000I267544J0D01*
G01*
X104797456Y-81570000D01*
G75*
G02*
X105065000Y-81837544I0J-267544D01*
G01*
X105065000Y-82827456D01*
G75*
G02*
X104797456Y-83095000I-267544J0D01*
G01*
G37*
G36*
G01*
X104797456Y-86070000D02*
X103482544Y-86070000D01*
G75*
G02*
X103215000Y-85802456I0J267544D01*
G01*
X103215000Y-84812544D01*
G75*
G02*
X103482544Y-84545000I267544J0D01*
G01*
X104797456Y-84545000D01*
G75*
G02*
X105065000Y-84812544I0J-267544D01*
G01*
X105065000Y-85802456D01*
G75*
G02*
X104797456Y-86070000I-267544J0D01*
G01*
G37*
G36*
G01*
X103482544Y-94922500D02*
X104797456Y-94922500D01*
G75*
G02*
X105065000Y-95190044I0J-267544D01*
G01*
X105065000Y-96179956D01*
G75*
G02*
X104797456Y-96447500I-267544J0D01*
G01*
X103482544Y-96447500D01*
G75*
G02*
X103215000Y-96179956I0J267544D01*
G01*
X103215000Y-95190044D01*
G75*
G02*
X103482544Y-94922500I267544J0D01*
G01*
G37*
G36*
G01*
X103482544Y-91947500D02*
X104797456Y-91947500D01*
G75*
G02*
X105065000Y-92215044I0J-267544D01*
G01*
X105065000Y-93204956D01*
G75*
G02*
X104797456Y-93472500I-267544J0D01*
G01*
X103482544Y-93472500D01*
G75*
G02*
X103215000Y-93204956I0J267544D01*
G01*
X103215000Y-92215044D01*
G75*
G02*
X103482544Y-91947500I267544J0D01*
G01*
G37*
G36*
G01*
X115025000Y-125117456D02*
X115025000Y-123802544D01*
G75*
G02*
X115292544Y-123535000I267544J0D01*
G01*
X116282456Y-123535000D01*
G75*
G02*
X116550000Y-123802544I0J-267544D01*
G01*
X116550000Y-125117456D01*
G75*
G02*
X116282456Y-125385000I-267544J0D01*
G01*
X115292544Y-125385000D01*
G75*
G02*
X115025000Y-125117456I0J267544D01*
G01*
G37*
G36*
G01*
X112050000Y-125117456D02*
X112050000Y-123802544D01*
G75*
G02*
X112317544Y-123535000I267544J0D01*
G01*
X113307456Y-123535000D01*
G75*
G02*
X113575000Y-123802544I0J-267544D01*
G01*
X113575000Y-125117456D01*
G75*
G02*
X113307456Y-125385000I-267544J0D01*
G01*
X112317544Y-125385000D01*
G75*
G02*
X112050000Y-125117456I0J267544D01*
G01*
G37*
D10*
X114300000Y-111760000D03*
X111760000Y-111760000D03*
X109220000Y-111760000D03*
X106680000Y-111760000D03*
X104140000Y-111760000D03*
X101600000Y-111760000D03*
X99060000Y-111760000D03*
D11*
X96520000Y-111760000D03*
D14*
X113030000Y-119380000D03*
D13*
X97790000Y-60960000D03*
D15*
X100290000Y-60960000D03*
X172720000Y-120650000D03*
X172720000Y-123150000D03*
X172720000Y-102830000D03*
X172720000Y-100330000D03*
D16*
X100330000Y-102870000D03*
D17*
X102870000Y-102870000D03*
D11*
X93980000Y-60960000D03*
D10*
X91440000Y-60960000D03*
X93980000Y-63500000D03*
X91440000Y-63500000D03*
X93980000Y-66040000D03*
X91440000Y-66040000D03*
X93980000Y-68580000D03*
X91440000Y-68580000D03*
X93980000Y-71120000D03*
X91440000Y-71120000D03*
X93980000Y-73660000D03*
X91440000Y-73660000D03*
X93980000Y-76200000D03*
X91440000Y-76200000D03*
X93980000Y-78740000D03*
X91440000Y-78740000D03*
X93980000Y-81280000D03*
X91440000Y-81280000D03*
X93980000Y-83820000D03*
X91440000Y-83820000D03*
X93980000Y-86360000D03*
X91440000Y-86360000D03*
X93980000Y-88900000D03*
X91440000Y-88900000D03*
X93980000Y-91440000D03*
X91440000Y-91440000D03*
X93980000Y-93980000D03*
X91440000Y-93980000D03*
X93980000Y-96520000D03*
X91440000Y-96520000D03*
X93980000Y-99060000D03*
X91440000Y-99060000D03*
X93980000Y-101600000D03*
X91440000Y-101600000D03*
X93980000Y-104140000D03*
X91440000Y-104140000D03*
X153670000Y-128270000D03*
X156210000Y-128270000D03*
X158750000Y-128270000D03*
X161290000Y-128270000D03*
X163830000Y-128270000D03*
D11*
X166370000Y-128270000D03*
X146050000Y-128270000D03*
D10*
X143510000Y-128270000D03*
X140970000Y-128270000D03*
X138430000Y-128270000D03*
X135890000Y-128270000D03*
X133350000Y-128270000D03*
D15*
X106680000Y-102870000D03*
D12*
X116840000Y-102870000D03*
D13*
X121920000Y-60960000D03*
D12*
X137160000Y-109220000D03*
X121920000Y-63500000D03*
X137160000Y-106680000D03*
X121920000Y-66040000D03*
X137160000Y-104140000D03*
X121920000Y-68580000D03*
X137160000Y-101600000D03*
X121920000Y-71120000D03*
X137160000Y-99060000D03*
X121920000Y-73660000D03*
X137160000Y-96520000D03*
X121920000Y-76200000D03*
X137160000Y-93980000D03*
X121920000Y-78740000D03*
X137160000Y-91440000D03*
X121920000Y-81280000D03*
X137160000Y-88900000D03*
X121920000Y-83820000D03*
X137160000Y-86360000D03*
X121920000Y-86360000D03*
X137160000Y-83820000D03*
X121920000Y-88900000D03*
X137160000Y-81280000D03*
X121920000Y-91440000D03*
X137160000Y-78740000D03*
X121920000Y-93980000D03*
X137160000Y-76200000D03*
X121920000Y-96520000D03*
X137160000Y-73660000D03*
X121920000Y-99060000D03*
X137160000Y-71120000D03*
X121920000Y-101600000D03*
X137160000Y-68580000D03*
X121920000Y-104140000D03*
X137160000Y-66040000D03*
X121920000Y-106680000D03*
X137160000Y-63500000D03*
X121920000Y-109220000D03*
X137160000Y-60960000D03*
D18*
X157480000Y-105410000D03*
D19*
X154940000Y-105410000D03*
X152400000Y-105410000D03*
X160020000Y-105410000D03*
X162560000Y-105410000D03*
X154940000Y-102870000D03*
X152400000Y-102870000D03*
X149860000Y-102870000D03*
X157480000Y-102870000D03*
X160020000Y-102870000D03*
X149860000Y-105410000D03*
X149860000Y-107950000D03*
X149860000Y-110490000D03*
X149860000Y-113030000D03*
X149860000Y-115570000D03*
X147320000Y-105410000D03*
X147320000Y-107950000D03*
X147320000Y-110490000D03*
X147320000Y-113030000D03*
X147320000Y-115570000D03*
X147320000Y-118110000D03*
X149860000Y-118110000D03*
X152400000Y-118110000D03*
X154940000Y-118110000D03*
X157480000Y-118110000D03*
X160020000Y-118110000D03*
X165100000Y-118110000D03*
X149860000Y-120650000D03*
X152400000Y-120650000D03*
X154940000Y-120650000D03*
X157480000Y-120650000D03*
X160020000Y-120650000D03*
X162560000Y-120650000D03*
X162560000Y-118110000D03*
X162560000Y-115570000D03*
X162560000Y-113030000D03*
X162560000Y-110490000D03*
X162560000Y-107950000D03*
X162560000Y-102870000D03*
X165100000Y-115570000D03*
X165100000Y-113030000D03*
X165100000Y-110490000D03*
X165100000Y-107950000D03*
X165100000Y-105410000D03*
D13*
X97790000Y-118110000D03*
D15*
X105410000Y-118110000D03*
X105410000Y-133350000D03*
X97790000Y-133350000D03*
D20*
X172720000Y-114100000D03*
X172720000Y-109220000D03*
M02*
