M48
; DRILL file {KiCad (5.1.6-0-10_14)} date Saturday, January 30, 2021 at 08:31:39 PM
; FORMAT={2:4/ absolute / inch / suppress leading zeros}
; #@! TF.CreationDate,2021-01-30T20:31:39+01:00
; #@! TF.GenerationSoftware,Kicad,Pcbnew,(5.1.6-0-10_14)
FMAT,2
INCH,TZ
T1C0.0157
T2C0.0315
T3C0.0354
T4C0.0394
T5C0.0630
%
G90
G05
T1
X38900Y-28400
X39000Y-27000
X39440Y-40560
X39700Y-51000
X40200Y-25792
X40200Y-29800
X41100Y-32600
X41100Y-38900
X41304Y-39633
X42200Y-37500
X42892Y-26100
X42892Y-31800
X43100Y-25100
X43200Y-33600
X43200Y-51500
X43400Y-43100
X43700Y-53500
X44800Y-35100
X45000Y-30000
X45200Y-36100
X45800Y-30600
X46100Y-34900
X46200Y-40700
X46500Y-52600
X47700Y-40700
X47800Y-31000
X47800Y-35500
X47900Y-26900
X47900Y-27900
X48100Y-30200
X48395Y-29595
X48404Y-37197
X48500Y-35600
X48553Y-44633
X48600Y-24100
X48700Y-28300
X48709Y-34184
X48792Y-35900
X48800Y-27100
X48886Y-31328
X49000Y-34400
X49000Y-45100
X49100Y-23200
X49100Y-26892
X49100Y-28000
X49100Y-33000
X49100Y-35400
X49200Y-32200
X49300Y-52600
X49375Y-29575
X49500Y-37400
X49508Y-36403
X50200Y-37500
X50600Y-36200
X50875Y-37525
X51200Y-43900
X51900Y-50792
X52600Y-54000
X52700Y-50800
X52800Y-36100
X52824Y-54540
X52900Y-52700
X53200Y-53100
X53728Y-33613
X53800Y-27400
X53800Y-28800
X54148Y-25260
X54192Y-30200
X54272Y-25969
X54392Y-43300
X54400Y-24100
X54400Y-31208
X54600Y-29208
X54600Y-39200
X54749Y-26803
X54800Y-24200
X54800Y-31900
X54800Y-37100
X54808Y-24736
X54808Y-39700
X55100Y-30000
X55200Y-24400
X55254Y-26387
X55300Y-41900
X55300Y-47500
X55900Y-52700
X57400Y-25500
X57500Y-40000
X57700Y-33300
X57700Y-35300
X57800Y-34400
X57800Y-35700
X58141Y-36183
X58200Y-34500
X58200Y-36600
X58400Y-27000
X58419Y-36303
X59400Y-38000
X60700Y-27800
X61301Y-32613
X61495Y-29405
X61700Y-23800
X62100Y-25700
X62300Y-26200
X62303Y-37223
X62400Y-28400
X62500Y-40200
X62500Y-51900
X62600Y-26408
X62700Y-26824
X62800Y-25400
X62800Y-35900
X63000Y-27900
X63000Y-31400
X63000Y-38200
X63000Y-41092
X63100Y-24400
X63288Y-33923
X63600Y-30900
X63800Y-23408
X63900Y-42000
X64100Y-28900
X64108Y-30400
X65687Y-47100
X65800Y-50900
X65895Y-34595
X66066Y-37317
X66103Y-49800
X66400Y-41800
X66941Y-52723
X67132Y-42968
X67267Y-43587
X67337Y-53237
X67700Y-53600
X68078Y-49600
X68292Y-47479
X68500Y-23792
X68700Y-31800
X68800Y-24700
X69000Y-30900
X69100Y-33000
X69200Y-25792
X69400Y-29700
X69500Y-26792
X69500Y-37100
X69700Y-27808
X69700Y-28900
X69800Y-37792
X69892Y-28100
X69892Y-28600
X69900Y-33700
X69900Y-52000
X70200Y-27000
X70223Y-47730
X70300Y-35300
X70492Y-29500
X70700Y-23900
X70700Y-26000
X70900Y-30600
X70905Y-35595
X71020Y-34420
X71828Y-48600
X71905Y-36405
X72300Y-27600
X72500Y-31600
X72500Y-53800
X72586Y-41777
X73000Y-46000
X74300Y-48800
X74729Y-33606
X74800Y-23900
X75000Y-25000
X75000Y-34208
X75200Y-35300
X75300Y-25800
X75400Y-35600
X75500Y-27800
X75555Y-36792
X75600Y-27000
X75600Y-41200
X75900Y-34900
X76000Y-28800
X76100Y-29792
X76100Y-33800
X76200Y-24208
X76392Y-37208
X76400Y-47000
X76600Y-26200
X77192Y-29208
X77254Y-36792
X77295Y-24792
X77300Y-35300
X77400Y-25300
X77403Y-34497
X77600Y-30300
X77700Y-33900
X77800Y-28200
X77905Y-31014
X77908Y-33400
X78000Y-27300
X78028Y-32500
X78200Y-35000
X78239Y-31274
X78253Y-32792
X78465Y-31082
X79300Y-49200
X79400Y-44900
X80200Y-23300
T2
X46016Y-48000
X47000Y-48000
X68000Y-24000
X68000Y-25000
X68000Y-26000
X68000Y-27000
X68000Y-28000
X68000Y-29000
X68000Y-30000
X68000Y-31000
X68000Y-32000
X68000Y-33000
X68000Y-34000
X68000Y-35000
X68000Y-36000
X68000Y-37000
X74000Y-24000
X74000Y-25000
X74000Y-26000
X74000Y-27000
X74000Y-28000
X74000Y-29000
X74000Y-30000
X74000Y-31000
X74000Y-32000
X74000Y-33000
X74000Y-34000
X74000Y-35000
X74000Y-36000
X74000Y-37000
X51000Y-51000
X51000Y-52000
X51000Y-53000
X51000Y-54000
X51000Y-55000
X51000Y-56000
X51000Y-57000
X54000Y-51000
X54000Y-52000
X54000Y-53000
X54000Y-54000
X54000Y-55000
X54000Y-56000
X54000Y-57000
X59000Y-46500
X63000Y-46500
X58000Y-49000
X58984Y-49000
X45000Y-33000
X45984Y-33000
X59000Y-40500
X63000Y-40500
X41500Y-24500
X41500Y-28500
X45000Y-50000
X45000Y-51000
X45000Y-52000
X45000Y-53000
X45000Y-54000
X45000Y-55000
X45000Y-56000
X45000Y-57000
X48000Y-50000
X48000Y-51000
X48000Y-52000
X48000Y-53000
X48000Y-54000
X48000Y-55000
X48000Y-56000
X48000Y-57000
X50000Y-24000
X50000Y-25000
X50000Y-26000
X50000Y-27000
X50000Y-28000
X50000Y-29000
X50000Y-30000
X50000Y-31000
X50000Y-32000
X50000Y-33000
X50000Y-34000
X50000Y-35000
X50000Y-36000
X50000Y-37000
X50000Y-38000
X50000Y-39000
X50000Y-40000
X50000Y-41000
X50000Y-42000
X50000Y-43000
X56000Y-24000
X56000Y-25000
X56000Y-26000
X56000Y-27000
X56000Y-28000
X56000Y-29000
X56000Y-30000
X56000Y-31000
X56000Y-32000
X56000Y-33000
X56000Y-34000
X56000Y-35000
X56000Y-36000
X56000Y-37000
X56000Y-38000
X56000Y-39000
X56000Y-40000
X56000Y-41000
X56000Y-42000
X56000Y-43000
X52016Y-49000
X53000Y-49000
X41500Y-36500
X41500Y-40500
X39516Y-48000
X40500Y-48000
X53000Y-46000
X57000Y-46000
X57000Y-51000
X57000Y-52000
X57000Y-53000
X57000Y-54000
X57000Y-55000
X57000Y-56000
X57000Y-57000
X60000Y-51000
X60000Y-52000
X60000Y-53000
X60000Y-54000
X60000Y-55000
X60000Y-56000
X60000Y-57000
X59000Y-24000
X59000Y-25000
X59000Y-26000
X59000Y-27000
X59000Y-28000
X59000Y-29000
X59000Y-30000
X59000Y-31000
X59000Y-32000
X59000Y-33000
X59000Y-34000
X59000Y-35000
X59000Y-36000
X59000Y-37000
X65000Y-24000
X65000Y-25000
X65000Y-26000
X65000Y-27000
X65000Y-28000
X65000Y-29000
X65000Y-30000
X65000Y-31000
X65000Y-32000
X65000Y-33000
X65000Y-34000
X65000Y-35000
X65000Y-36000
X65000Y-37000
X77000Y-47000
X77000Y-48921
X59000Y-44500
X63000Y-44500
X44000Y-35000
X44000Y-36000
X44000Y-37000
X44000Y-38000
X44000Y-39000
X44000Y-40000
X44000Y-41000
X47000Y-35000
X47000Y-36000
X47000Y-37000
X47000Y-38000
X47000Y-39000
X47000Y-40000
X47000Y-41000
X41500Y-30500
X41500Y-34500
X69516Y-42000
X70500Y-42000
X66500Y-45500
X66500Y-46500
X66500Y-47500
X66500Y-48500
X66500Y-49500
X66500Y-50500
X67500Y-44500
X67500Y-45500
X67500Y-46500
X67500Y-47500
X67500Y-48500
X67500Y-49500
X67500Y-50500
X67500Y-51500
X68500Y-44500
X68500Y-45500
X68500Y-50500
X68500Y-51500
X69500Y-44500
X69500Y-45500
X69500Y-50500
X69500Y-51500
X70500Y-44500
X70500Y-45500
X70500Y-50500
X70500Y-51500
X71500Y-44500
X71500Y-45500
X71500Y-50500
X71500Y-51500
X72500Y-44500
X72500Y-45500
X72500Y-46500
X72500Y-47500
X72500Y-48500
X72500Y-49500
X72500Y-50500
X72500Y-51500
X73500Y-45500
X73500Y-46500
X73500Y-47500
X73500Y-48500
X73500Y-49500
X73500Y-50500
X44000Y-24000
X44000Y-25000
X44000Y-26000
X44000Y-27000
X44000Y-28000
X44000Y-29000
X44000Y-30000
X47000Y-24000
X47000Y-25000
X47000Y-26000
X47000Y-27000
X47000Y-28000
X47000Y-29000
X47000Y-30000
X77000Y-51500
X77000Y-52484
X61516Y-22000
X62500Y-22000
X63500Y-48500
X63500Y-52500
X52516Y-22000
X53500Y-22000
X38000Y-46000
X42000Y-46000
X38500Y-50500
X38500Y-56500
X41500Y-50500
X41500Y-56500
X41016Y-22500
X42000Y-22500
X45016Y-22000
X46000Y-22000
X59000Y-42500
X63000Y-42500
X77000Y-43500
X77000Y-44484
X70500Y-22000
X71484Y-22000
T3
X50000Y-46000
X51000Y-46000
T4
X71500Y-54500
X72500Y-54500
X73500Y-54500
X74500Y-54500
X75500Y-54500
X76500Y-54500
X80000Y-43500
X80000Y-44500
X80000Y-45500
X80000Y-46500
X80000Y-47500
X36000Y-24000
X36000Y-25000
X36000Y-26000
X36000Y-27000
X36000Y-28000
X36000Y-29000
X36000Y-30000
X36000Y-31000
X36000Y-32000
X36000Y-33000
X36000Y-34000
X36000Y-35000
X36000Y-36000
X36000Y-37000
X36000Y-38000
X36000Y-39000
X36000Y-40000
X36000Y-41000
X37000Y-24000
X37000Y-25000
X37000Y-26000
X37000Y-27000
X37000Y-28000
X37000Y-29000
X37000Y-30000
X37000Y-31000
X37000Y-32000
X37000Y-33000
X37000Y-34000
X37000Y-35000
X37000Y-36000
X37000Y-37000
X37000Y-38000
X37000Y-39000
X37000Y-40000
X37000Y-41000
X79000Y-24000
X79000Y-25000
X79000Y-26000
X79000Y-27000
X79000Y-28000
X79000Y-29000
X79000Y-30000
X79000Y-31000
X79000Y-32000
X79000Y-33000
X79000Y-34000
X79000Y-35000
X79000Y-36000
X79000Y-37000
X79000Y-38000
X79000Y-39000
X79000Y-40000
X79000Y-41000
X80000Y-24000
X80000Y-25000
X80000Y-26000
X80000Y-27000
X80000Y-28000
X80000Y-29000
X80000Y-30000
X80000Y-31000
X80000Y-32000
X80000Y-33000
X80000Y-34000
X80000Y-35000
X80000Y-36000
X80000Y-37000
X80000Y-38000
X80000Y-39000
X80000Y-40000
X80000Y-41000
X80000Y-50000
X80000Y-51000
X80000Y-52000
X80000Y-53000
X80000Y-54000
X80000Y-55000
X38000Y-44000
X39000Y-44000
X40000Y-44000
X41000Y-44000
X42000Y-44000
X43000Y-44000
X44000Y-44000
X45000Y-44000
X63500Y-54500
X64500Y-54500
X65500Y-54500
X66500Y-54500
X67500Y-54500
X68500Y-54500
T5
X74500Y-40000
T0
M30
