%TF.GenerationSoftware,KiCad,Pcbnew,(5.1.6-0-10_14)*%
%TF.CreationDate,2021-04-25T21:39:23+02:00*%
%TF.ProjectId,Z80_Dev_Board,5a38305f-4465-4765-9f42-6f6172642e6b,rev?*%
%TF.SameCoordinates,Original*%
%TF.FileFunction,Paste,Top*%
%TF.FilePolarity,Positive*%
%FSLAX46Y46*%
G04 Gerber Fmt 4.6, Leading zero omitted, Abs format (unit mm)*
G04 Created by KiCad (PCBNEW (5.1.6-0-10_14)) date 2021-04-25 21:39:23*
%MOMM*%
%LPD*%
G01*
G04 APERTURE LIST*
G04 APERTURE END LIST*
G36*
G01*
X125235000Y-125085000D02*
X125235000Y-123835000D01*
G75*
G02*
X125485000Y-123585000I250000J0D01*
G01*
X126410000Y-123585000D01*
G75*
G02*
X126660000Y-123835000I0J-250000D01*
G01*
X126660000Y-125085000D01*
G75*
G02*
X126410000Y-125335000I-250000J0D01*
G01*
X125485000Y-125335000D01*
G75*
G02*
X125235000Y-125085000I0J250000D01*
G01*
G37*
G36*
G01*
X122260000Y-125085000D02*
X122260000Y-123835000D01*
G75*
G02*
X122510000Y-123585000I250000J0D01*
G01*
X123435000Y-123585000D01*
G75*
G02*
X123685000Y-123835000I0J-250000D01*
G01*
X123685000Y-125085000D01*
G75*
G02*
X123435000Y-125335000I-250000J0D01*
G01*
X122510000Y-125335000D01*
G75*
G02*
X122260000Y-125085000I0J250000D01*
G01*
G37*
G36*
G01*
X125960000Y-129055000D02*
X125960000Y-128755000D01*
G75*
G02*
X126110000Y-128605000I150000J0D01*
G01*
X127760000Y-128605000D01*
G75*
G02*
X127910000Y-128755000I0J-150000D01*
G01*
X127910000Y-129055000D01*
G75*
G02*
X127760000Y-129205000I-150000J0D01*
G01*
X126110000Y-129205000D01*
G75*
G02*
X125960000Y-129055000I0J150000D01*
G01*
G37*
G36*
G01*
X125960000Y-130325000D02*
X125960000Y-130025000D01*
G75*
G02*
X126110000Y-129875000I150000J0D01*
G01*
X127760000Y-129875000D01*
G75*
G02*
X127910000Y-130025000I0J-150000D01*
G01*
X127910000Y-130325000D01*
G75*
G02*
X127760000Y-130475000I-150000J0D01*
G01*
X126110000Y-130475000D01*
G75*
G02*
X125960000Y-130325000I0J150000D01*
G01*
G37*
G36*
G01*
X125960000Y-131595000D02*
X125960000Y-131295000D01*
G75*
G02*
X126110000Y-131145000I150000J0D01*
G01*
X127760000Y-131145000D01*
G75*
G02*
X127910000Y-131295000I0J-150000D01*
G01*
X127910000Y-131595000D01*
G75*
G02*
X127760000Y-131745000I-150000J0D01*
G01*
X126110000Y-131745000D01*
G75*
G02*
X125960000Y-131595000I0J150000D01*
G01*
G37*
G36*
G01*
X125960000Y-132865000D02*
X125960000Y-132565000D01*
G75*
G02*
X126110000Y-132415000I150000J0D01*
G01*
X127760000Y-132415000D01*
G75*
G02*
X127910000Y-132565000I0J-150000D01*
G01*
X127910000Y-132865000D01*
G75*
G02*
X127760000Y-133015000I-150000J0D01*
G01*
X126110000Y-133015000D01*
G75*
G02*
X125960000Y-132865000I0J150000D01*
G01*
G37*
G36*
G01*
X125960000Y-134135000D02*
X125960000Y-133835000D01*
G75*
G02*
X126110000Y-133685000I150000J0D01*
G01*
X127760000Y-133685000D01*
G75*
G02*
X127910000Y-133835000I0J-150000D01*
G01*
X127910000Y-134135000D01*
G75*
G02*
X127760000Y-134285000I-150000J0D01*
G01*
X126110000Y-134285000D01*
G75*
G02*
X125960000Y-134135000I0J150000D01*
G01*
G37*
G36*
G01*
X125960000Y-135405000D02*
X125960000Y-135105000D01*
G75*
G02*
X126110000Y-134955000I150000J0D01*
G01*
X127760000Y-134955000D01*
G75*
G02*
X127910000Y-135105000I0J-150000D01*
G01*
X127910000Y-135405000D01*
G75*
G02*
X127760000Y-135555000I-150000J0D01*
G01*
X126110000Y-135555000D01*
G75*
G02*
X125960000Y-135405000I0J150000D01*
G01*
G37*
G36*
G01*
X125960000Y-136675000D02*
X125960000Y-136375000D01*
G75*
G02*
X126110000Y-136225000I150000J0D01*
G01*
X127760000Y-136225000D01*
G75*
G02*
X127910000Y-136375000I0J-150000D01*
G01*
X127910000Y-136675000D01*
G75*
G02*
X127760000Y-136825000I-150000J0D01*
G01*
X126110000Y-136825000D01*
G75*
G02*
X125960000Y-136675000I0J150000D01*
G01*
G37*
G36*
G01*
X125960000Y-137945000D02*
X125960000Y-137645000D01*
G75*
G02*
X126110000Y-137495000I150000J0D01*
G01*
X127760000Y-137495000D01*
G75*
G02*
X127910000Y-137645000I0J-150000D01*
G01*
X127910000Y-137945000D01*
G75*
G02*
X127760000Y-138095000I-150000J0D01*
G01*
X126110000Y-138095000D01*
G75*
G02*
X125960000Y-137945000I0J150000D01*
G01*
G37*
G36*
G01*
X121010000Y-137945000D02*
X121010000Y-137645000D01*
G75*
G02*
X121160000Y-137495000I150000J0D01*
G01*
X122810000Y-137495000D01*
G75*
G02*
X122960000Y-137645000I0J-150000D01*
G01*
X122960000Y-137945000D01*
G75*
G02*
X122810000Y-138095000I-150000J0D01*
G01*
X121160000Y-138095000D01*
G75*
G02*
X121010000Y-137945000I0J150000D01*
G01*
G37*
G36*
G01*
X121010000Y-136675000D02*
X121010000Y-136375000D01*
G75*
G02*
X121160000Y-136225000I150000J0D01*
G01*
X122810000Y-136225000D01*
G75*
G02*
X122960000Y-136375000I0J-150000D01*
G01*
X122960000Y-136675000D01*
G75*
G02*
X122810000Y-136825000I-150000J0D01*
G01*
X121160000Y-136825000D01*
G75*
G02*
X121010000Y-136675000I0J150000D01*
G01*
G37*
G36*
G01*
X121010000Y-135405000D02*
X121010000Y-135105000D01*
G75*
G02*
X121160000Y-134955000I150000J0D01*
G01*
X122810000Y-134955000D01*
G75*
G02*
X122960000Y-135105000I0J-150000D01*
G01*
X122960000Y-135405000D01*
G75*
G02*
X122810000Y-135555000I-150000J0D01*
G01*
X121160000Y-135555000D01*
G75*
G02*
X121010000Y-135405000I0J150000D01*
G01*
G37*
G36*
G01*
X121010000Y-134135000D02*
X121010000Y-133835000D01*
G75*
G02*
X121160000Y-133685000I150000J0D01*
G01*
X122810000Y-133685000D01*
G75*
G02*
X122960000Y-133835000I0J-150000D01*
G01*
X122960000Y-134135000D01*
G75*
G02*
X122810000Y-134285000I-150000J0D01*
G01*
X121160000Y-134285000D01*
G75*
G02*
X121010000Y-134135000I0J150000D01*
G01*
G37*
G36*
G01*
X121010000Y-132865000D02*
X121010000Y-132565000D01*
G75*
G02*
X121160000Y-132415000I150000J0D01*
G01*
X122810000Y-132415000D01*
G75*
G02*
X122960000Y-132565000I0J-150000D01*
G01*
X122960000Y-132865000D01*
G75*
G02*
X122810000Y-133015000I-150000J0D01*
G01*
X121160000Y-133015000D01*
G75*
G02*
X121010000Y-132865000I0J150000D01*
G01*
G37*
G36*
G01*
X121010000Y-131595000D02*
X121010000Y-131295000D01*
G75*
G02*
X121160000Y-131145000I150000J0D01*
G01*
X122810000Y-131145000D01*
G75*
G02*
X122960000Y-131295000I0J-150000D01*
G01*
X122960000Y-131595000D01*
G75*
G02*
X122810000Y-131745000I-150000J0D01*
G01*
X121160000Y-131745000D01*
G75*
G02*
X121010000Y-131595000I0J150000D01*
G01*
G37*
G36*
G01*
X121010000Y-130325000D02*
X121010000Y-130025000D01*
G75*
G02*
X121160000Y-129875000I150000J0D01*
G01*
X122810000Y-129875000D01*
G75*
G02*
X122960000Y-130025000I0J-150000D01*
G01*
X122960000Y-130325000D01*
G75*
G02*
X122810000Y-130475000I-150000J0D01*
G01*
X121160000Y-130475000D01*
G75*
G02*
X121010000Y-130325000I0J150000D01*
G01*
G37*
G36*
G01*
X121010000Y-129055000D02*
X121010000Y-128755000D01*
G75*
G02*
X121160000Y-128605000I150000J0D01*
G01*
X122810000Y-128605000D01*
G75*
G02*
X122960000Y-128755000I0J-150000D01*
G01*
X122960000Y-129055000D01*
G75*
G02*
X122810000Y-129205000I-150000J0D01*
G01*
X121160000Y-129205000D01*
G75*
G02*
X121010000Y-129055000I0J150000D01*
G01*
G37*
G36*
G01*
X115800000Y-129055000D02*
X115800000Y-128755000D01*
G75*
G02*
X115950000Y-128605000I150000J0D01*
G01*
X117600000Y-128605000D01*
G75*
G02*
X117750000Y-128755000I0J-150000D01*
G01*
X117750000Y-129055000D01*
G75*
G02*
X117600000Y-129205000I-150000J0D01*
G01*
X115950000Y-129205000D01*
G75*
G02*
X115800000Y-129055000I0J150000D01*
G01*
G37*
G36*
G01*
X115800000Y-130325000D02*
X115800000Y-130025000D01*
G75*
G02*
X115950000Y-129875000I150000J0D01*
G01*
X117600000Y-129875000D01*
G75*
G02*
X117750000Y-130025000I0J-150000D01*
G01*
X117750000Y-130325000D01*
G75*
G02*
X117600000Y-130475000I-150000J0D01*
G01*
X115950000Y-130475000D01*
G75*
G02*
X115800000Y-130325000I0J150000D01*
G01*
G37*
G36*
G01*
X115800000Y-131595000D02*
X115800000Y-131295000D01*
G75*
G02*
X115950000Y-131145000I150000J0D01*
G01*
X117600000Y-131145000D01*
G75*
G02*
X117750000Y-131295000I0J-150000D01*
G01*
X117750000Y-131595000D01*
G75*
G02*
X117600000Y-131745000I-150000J0D01*
G01*
X115950000Y-131745000D01*
G75*
G02*
X115800000Y-131595000I0J150000D01*
G01*
G37*
G36*
G01*
X115800000Y-132865000D02*
X115800000Y-132565000D01*
G75*
G02*
X115950000Y-132415000I150000J0D01*
G01*
X117600000Y-132415000D01*
G75*
G02*
X117750000Y-132565000I0J-150000D01*
G01*
X117750000Y-132865000D01*
G75*
G02*
X117600000Y-133015000I-150000J0D01*
G01*
X115950000Y-133015000D01*
G75*
G02*
X115800000Y-132865000I0J150000D01*
G01*
G37*
G36*
G01*
X115800000Y-134135000D02*
X115800000Y-133835000D01*
G75*
G02*
X115950000Y-133685000I150000J0D01*
G01*
X117600000Y-133685000D01*
G75*
G02*
X117750000Y-133835000I0J-150000D01*
G01*
X117750000Y-134135000D01*
G75*
G02*
X117600000Y-134285000I-150000J0D01*
G01*
X115950000Y-134285000D01*
G75*
G02*
X115800000Y-134135000I0J150000D01*
G01*
G37*
G36*
G01*
X115800000Y-135405000D02*
X115800000Y-135105000D01*
G75*
G02*
X115950000Y-134955000I150000J0D01*
G01*
X117600000Y-134955000D01*
G75*
G02*
X117750000Y-135105000I0J-150000D01*
G01*
X117750000Y-135405000D01*
G75*
G02*
X117600000Y-135555000I-150000J0D01*
G01*
X115950000Y-135555000D01*
G75*
G02*
X115800000Y-135405000I0J150000D01*
G01*
G37*
G36*
G01*
X115800000Y-136675000D02*
X115800000Y-136375000D01*
G75*
G02*
X115950000Y-136225000I150000J0D01*
G01*
X117600000Y-136225000D01*
G75*
G02*
X117750000Y-136375000I0J-150000D01*
G01*
X117750000Y-136675000D01*
G75*
G02*
X117600000Y-136825000I-150000J0D01*
G01*
X115950000Y-136825000D01*
G75*
G02*
X115800000Y-136675000I0J150000D01*
G01*
G37*
G36*
G01*
X115800000Y-137945000D02*
X115800000Y-137645000D01*
G75*
G02*
X115950000Y-137495000I150000J0D01*
G01*
X117600000Y-137495000D01*
G75*
G02*
X117750000Y-137645000I0J-150000D01*
G01*
X117750000Y-137945000D01*
G75*
G02*
X117600000Y-138095000I-150000J0D01*
G01*
X115950000Y-138095000D01*
G75*
G02*
X115800000Y-137945000I0J150000D01*
G01*
G37*
G36*
G01*
X110850000Y-137945000D02*
X110850000Y-137645000D01*
G75*
G02*
X111000000Y-137495000I150000J0D01*
G01*
X112650000Y-137495000D01*
G75*
G02*
X112800000Y-137645000I0J-150000D01*
G01*
X112800000Y-137945000D01*
G75*
G02*
X112650000Y-138095000I-150000J0D01*
G01*
X111000000Y-138095000D01*
G75*
G02*
X110850000Y-137945000I0J150000D01*
G01*
G37*
G36*
G01*
X110850000Y-136675000D02*
X110850000Y-136375000D01*
G75*
G02*
X111000000Y-136225000I150000J0D01*
G01*
X112650000Y-136225000D01*
G75*
G02*
X112800000Y-136375000I0J-150000D01*
G01*
X112800000Y-136675000D01*
G75*
G02*
X112650000Y-136825000I-150000J0D01*
G01*
X111000000Y-136825000D01*
G75*
G02*
X110850000Y-136675000I0J150000D01*
G01*
G37*
G36*
G01*
X110850000Y-135405000D02*
X110850000Y-135105000D01*
G75*
G02*
X111000000Y-134955000I150000J0D01*
G01*
X112650000Y-134955000D01*
G75*
G02*
X112800000Y-135105000I0J-150000D01*
G01*
X112800000Y-135405000D01*
G75*
G02*
X112650000Y-135555000I-150000J0D01*
G01*
X111000000Y-135555000D01*
G75*
G02*
X110850000Y-135405000I0J150000D01*
G01*
G37*
G36*
G01*
X110850000Y-134135000D02*
X110850000Y-133835000D01*
G75*
G02*
X111000000Y-133685000I150000J0D01*
G01*
X112650000Y-133685000D01*
G75*
G02*
X112800000Y-133835000I0J-150000D01*
G01*
X112800000Y-134135000D01*
G75*
G02*
X112650000Y-134285000I-150000J0D01*
G01*
X111000000Y-134285000D01*
G75*
G02*
X110850000Y-134135000I0J150000D01*
G01*
G37*
G36*
G01*
X110850000Y-132865000D02*
X110850000Y-132565000D01*
G75*
G02*
X111000000Y-132415000I150000J0D01*
G01*
X112650000Y-132415000D01*
G75*
G02*
X112800000Y-132565000I0J-150000D01*
G01*
X112800000Y-132865000D01*
G75*
G02*
X112650000Y-133015000I-150000J0D01*
G01*
X111000000Y-133015000D01*
G75*
G02*
X110850000Y-132865000I0J150000D01*
G01*
G37*
G36*
G01*
X110850000Y-131595000D02*
X110850000Y-131295000D01*
G75*
G02*
X111000000Y-131145000I150000J0D01*
G01*
X112650000Y-131145000D01*
G75*
G02*
X112800000Y-131295000I0J-150000D01*
G01*
X112800000Y-131595000D01*
G75*
G02*
X112650000Y-131745000I-150000J0D01*
G01*
X111000000Y-131745000D01*
G75*
G02*
X110850000Y-131595000I0J150000D01*
G01*
G37*
G36*
G01*
X110850000Y-130325000D02*
X110850000Y-130025000D01*
G75*
G02*
X111000000Y-129875000I150000J0D01*
G01*
X112650000Y-129875000D01*
G75*
G02*
X112800000Y-130025000I0J-150000D01*
G01*
X112800000Y-130325000D01*
G75*
G02*
X112650000Y-130475000I-150000J0D01*
G01*
X111000000Y-130475000D01*
G75*
G02*
X110850000Y-130325000I0J150000D01*
G01*
G37*
G36*
G01*
X110850000Y-129055000D02*
X110850000Y-128755000D01*
G75*
G02*
X111000000Y-128605000I150000J0D01*
G01*
X112650000Y-128605000D01*
G75*
G02*
X112800000Y-128755000I0J-150000D01*
G01*
X112800000Y-129055000D01*
G75*
G02*
X112650000Y-129205000I-150000J0D01*
G01*
X111000000Y-129205000D01*
G75*
G02*
X110850000Y-129055000I0J150000D01*
G01*
G37*
G36*
G01*
X108100000Y-92480000D02*
X107800000Y-92480000D01*
G75*
G02*
X107650000Y-92330000I0J150000D01*
G01*
X107650000Y-90680000D01*
G75*
G02*
X107800000Y-90530000I150000J0D01*
G01*
X108100000Y-90530000D01*
G75*
G02*
X108250000Y-90680000I0J-150000D01*
G01*
X108250000Y-92330000D01*
G75*
G02*
X108100000Y-92480000I-150000J0D01*
G01*
G37*
G36*
G01*
X109370000Y-92480000D02*
X109070000Y-92480000D01*
G75*
G02*
X108920000Y-92330000I0J150000D01*
G01*
X108920000Y-90680000D01*
G75*
G02*
X109070000Y-90530000I150000J0D01*
G01*
X109370000Y-90530000D01*
G75*
G02*
X109520000Y-90680000I0J-150000D01*
G01*
X109520000Y-92330000D01*
G75*
G02*
X109370000Y-92480000I-150000J0D01*
G01*
G37*
G36*
G01*
X110640000Y-92480000D02*
X110340000Y-92480000D01*
G75*
G02*
X110190000Y-92330000I0J150000D01*
G01*
X110190000Y-90680000D01*
G75*
G02*
X110340000Y-90530000I150000J0D01*
G01*
X110640000Y-90530000D01*
G75*
G02*
X110790000Y-90680000I0J-150000D01*
G01*
X110790000Y-92330000D01*
G75*
G02*
X110640000Y-92480000I-150000J0D01*
G01*
G37*
G36*
G01*
X111910000Y-92480000D02*
X111610000Y-92480000D01*
G75*
G02*
X111460000Y-92330000I0J150000D01*
G01*
X111460000Y-90680000D01*
G75*
G02*
X111610000Y-90530000I150000J0D01*
G01*
X111910000Y-90530000D01*
G75*
G02*
X112060000Y-90680000I0J-150000D01*
G01*
X112060000Y-92330000D01*
G75*
G02*
X111910000Y-92480000I-150000J0D01*
G01*
G37*
G36*
G01*
X113180000Y-92480000D02*
X112880000Y-92480000D01*
G75*
G02*
X112730000Y-92330000I0J150000D01*
G01*
X112730000Y-90680000D01*
G75*
G02*
X112880000Y-90530000I150000J0D01*
G01*
X113180000Y-90530000D01*
G75*
G02*
X113330000Y-90680000I0J-150000D01*
G01*
X113330000Y-92330000D01*
G75*
G02*
X113180000Y-92480000I-150000J0D01*
G01*
G37*
G36*
G01*
X114450000Y-92480000D02*
X114150000Y-92480000D01*
G75*
G02*
X114000000Y-92330000I0J150000D01*
G01*
X114000000Y-90680000D01*
G75*
G02*
X114150000Y-90530000I150000J0D01*
G01*
X114450000Y-90530000D01*
G75*
G02*
X114600000Y-90680000I0J-150000D01*
G01*
X114600000Y-92330000D01*
G75*
G02*
X114450000Y-92480000I-150000J0D01*
G01*
G37*
G36*
G01*
X115720000Y-92480000D02*
X115420000Y-92480000D01*
G75*
G02*
X115270000Y-92330000I0J150000D01*
G01*
X115270000Y-90680000D01*
G75*
G02*
X115420000Y-90530000I150000J0D01*
G01*
X115720000Y-90530000D01*
G75*
G02*
X115870000Y-90680000I0J-150000D01*
G01*
X115870000Y-92330000D01*
G75*
G02*
X115720000Y-92480000I-150000J0D01*
G01*
G37*
G36*
G01*
X115720000Y-97430000D02*
X115420000Y-97430000D01*
G75*
G02*
X115270000Y-97280000I0J150000D01*
G01*
X115270000Y-95630000D01*
G75*
G02*
X115420000Y-95480000I150000J0D01*
G01*
X115720000Y-95480000D01*
G75*
G02*
X115870000Y-95630000I0J-150000D01*
G01*
X115870000Y-97280000D01*
G75*
G02*
X115720000Y-97430000I-150000J0D01*
G01*
G37*
G36*
G01*
X114450000Y-97430000D02*
X114150000Y-97430000D01*
G75*
G02*
X114000000Y-97280000I0J150000D01*
G01*
X114000000Y-95630000D01*
G75*
G02*
X114150000Y-95480000I150000J0D01*
G01*
X114450000Y-95480000D01*
G75*
G02*
X114600000Y-95630000I0J-150000D01*
G01*
X114600000Y-97280000D01*
G75*
G02*
X114450000Y-97430000I-150000J0D01*
G01*
G37*
G36*
G01*
X113180000Y-97430000D02*
X112880000Y-97430000D01*
G75*
G02*
X112730000Y-97280000I0J150000D01*
G01*
X112730000Y-95630000D01*
G75*
G02*
X112880000Y-95480000I150000J0D01*
G01*
X113180000Y-95480000D01*
G75*
G02*
X113330000Y-95630000I0J-150000D01*
G01*
X113330000Y-97280000D01*
G75*
G02*
X113180000Y-97430000I-150000J0D01*
G01*
G37*
G36*
G01*
X111910000Y-97430000D02*
X111610000Y-97430000D01*
G75*
G02*
X111460000Y-97280000I0J150000D01*
G01*
X111460000Y-95630000D01*
G75*
G02*
X111610000Y-95480000I150000J0D01*
G01*
X111910000Y-95480000D01*
G75*
G02*
X112060000Y-95630000I0J-150000D01*
G01*
X112060000Y-97280000D01*
G75*
G02*
X111910000Y-97430000I-150000J0D01*
G01*
G37*
G36*
G01*
X110640000Y-97430000D02*
X110340000Y-97430000D01*
G75*
G02*
X110190000Y-97280000I0J150000D01*
G01*
X110190000Y-95630000D01*
G75*
G02*
X110340000Y-95480000I150000J0D01*
G01*
X110640000Y-95480000D01*
G75*
G02*
X110790000Y-95630000I0J-150000D01*
G01*
X110790000Y-97280000D01*
G75*
G02*
X110640000Y-97430000I-150000J0D01*
G01*
G37*
G36*
G01*
X109370000Y-97430000D02*
X109070000Y-97430000D01*
G75*
G02*
X108920000Y-97280000I0J150000D01*
G01*
X108920000Y-95630000D01*
G75*
G02*
X109070000Y-95480000I150000J0D01*
G01*
X109370000Y-95480000D01*
G75*
G02*
X109520000Y-95630000I0J-150000D01*
G01*
X109520000Y-97280000D01*
G75*
G02*
X109370000Y-97430000I-150000J0D01*
G01*
G37*
G36*
G01*
X108100000Y-97430000D02*
X107800000Y-97430000D01*
G75*
G02*
X107650000Y-97280000I0J150000D01*
G01*
X107650000Y-95630000D01*
G75*
G02*
X107800000Y-95480000I150000J0D01*
G01*
X108100000Y-95480000D01*
G75*
G02*
X108250000Y-95630000I0J-150000D01*
G01*
X108250000Y-97280000D01*
G75*
G02*
X108100000Y-97430000I-150000J0D01*
G01*
G37*
G36*
G01*
X108100000Y-62000000D02*
X107800000Y-62000000D01*
G75*
G02*
X107650000Y-61850000I0J150000D01*
G01*
X107650000Y-60200000D01*
G75*
G02*
X107800000Y-60050000I150000J0D01*
G01*
X108100000Y-60050000D01*
G75*
G02*
X108250000Y-60200000I0J-150000D01*
G01*
X108250000Y-61850000D01*
G75*
G02*
X108100000Y-62000000I-150000J0D01*
G01*
G37*
G36*
G01*
X109370000Y-62000000D02*
X109070000Y-62000000D01*
G75*
G02*
X108920000Y-61850000I0J150000D01*
G01*
X108920000Y-60200000D01*
G75*
G02*
X109070000Y-60050000I150000J0D01*
G01*
X109370000Y-60050000D01*
G75*
G02*
X109520000Y-60200000I0J-150000D01*
G01*
X109520000Y-61850000D01*
G75*
G02*
X109370000Y-62000000I-150000J0D01*
G01*
G37*
G36*
G01*
X110640000Y-62000000D02*
X110340000Y-62000000D01*
G75*
G02*
X110190000Y-61850000I0J150000D01*
G01*
X110190000Y-60200000D01*
G75*
G02*
X110340000Y-60050000I150000J0D01*
G01*
X110640000Y-60050000D01*
G75*
G02*
X110790000Y-60200000I0J-150000D01*
G01*
X110790000Y-61850000D01*
G75*
G02*
X110640000Y-62000000I-150000J0D01*
G01*
G37*
G36*
G01*
X111910000Y-62000000D02*
X111610000Y-62000000D01*
G75*
G02*
X111460000Y-61850000I0J150000D01*
G01*
X111460000Y-60200000D01*
G75*
G02*
X111610000Y-60050000I150000J0D01*
G01*
X111910000Y-60050000D01*
G75*
G02*
X112060000Y-60200000I0J-150000D01*
G01*
X112060000Y-61850000D01*
G75*
G02*
X111910000Y-62000000I-150000J0D01*
G01*
G37*
G36*
G01*
X113180000Y-62000000D02*
X112880000Y-62000000D01*
G75*
G02*
X112730000Y-61850000I0J150000D01*
G01*
X112730000Y-60200000D01*
G75*
G02*
X112880000Y-60050000I150000J0D01*
G01*
X113180000Y-60050000D01*
G75*
G02*
X113330000Y-60200000I0J-150000D01*
G01*
X113330000Y-61850000D01*
G75*
G02*
X113180000Y-62000000I-150000J0D01*
G01*
G37*
G36*
G01*
X114450000Y-62000000D02*
X114150000Y-62000000D01*
G75*
G02*
X114000000Y-61850000I0J150000D01*
G01*
X114000000Y-60200000D01*
G75*
G02*
X114150000Y-60050000I150000J0D01*
G01*
X114450000Y-60050000D01*
G75*
G02*
X114600000Y-60200000I0J-150000D01*
G01*
X114600000Y-61850000D01*
G75*
G02*
X114450000Y-62000000I-150000J0D01*
G01*
G37*
G36*
G01*
X115720000Y-62000000D02*
X115420000Y-62000000D01*
G75*
G02*
X115270000Y-61850000I0J150000D01*
G01*
X115270000Y-60200000D01*
G75*
G02*
X115420000Y-60050000I150000J0D01*
G01*
X115720000Y-60050000D01*
G75*
G02*
X115870000Y-60200000I0J-150000D01*
G01*
X115870000Y-61850000D01*
G75*
G02*
X115720000Y-62000000I-150000J0D01*
G01*
G37*
G36*
G01*
X115720000Y-66950000D02*
X115420000Y-66950000D01*
G75*
G02*
X115270000Y-66800000I0J150000D01*
G01*
X115270000Y-65150000D01*
G75*
G02*
X115420000Y-65000000I150000J0D01*
G01*
X115720000Y-65000000D01*
G75*
G02*
X115870000Y-65150000I0J-150000D01*
G01*
X115870000Y-66800000D01*
G75*
G02*
X115720000Y-66950000I-150000J0D01*
G01*
G37*
G36*
G01*
X114450000Y-66950000D02*
X114150000Y-66950000D01*
G75*
G02*
X114000000Y-66800000I0J150000D01*
G01*
X114000000Y-65150000D01*
G75*
G02*
X114150000Y-65000000I150000J0D01*
G01*
X114450000Y-65000000D01*
G75*
G02*
X114600000Y-65150000I0J-150000D01*
G01*
X114600000Y-66800000D01*
G75*
G02*
X114450000Y-66950000I-150000J0D01*
G01*
G37*
G36*
G01*
X113180000Y-66950000D02*
X112880000Y-66950000D01*
G75*
G02*
X112730000Y-66800000I0J150000D01*
G01*
X112730000Y-65150000D01*
G75*
G02*
X112880000Y-65000000I150000J0D01*
G01*
X113180000Y-65000000D01*
G75*
G02*
X113330000Y-65150000I0J-150000D01*
G01*
X113330000Y-66800000D01*
G75*
G02*
X113180000Y-66950000I-150000J0D01*
G01*
G37*
G36*
G01*
X111910000Y-66950000D02*
X111610000Y-66950000D01*
G75*
G02*
X111460000Y-66800000I0J150000D01*
G01*
X111460000Y-65150000D01*
G75*
G02*
X111610000Y-65000000I150000J0D01*
G01*
X111910000Y-65000000D01*
G75*
G02*
X112060000Y-65150000I0J-150000D01*
G01*
X112060000Y-66800000D01*
G75*
G02*
X111910000Y-66950000I-150000J0D01*
G01*
G37*
G36*
G01*
X110640000Y-66950000D02*
X110340000Y-66950000D01*
G75*
G02*
X110190000Y-66800000I0J150000D01*
G01*
X110190000Y-65150000D01*
G75*
G02*
X110340000Y-65000000I150000J0D01*
G01*
X110640000Y-65000000D01*
G75*
G02*
X110790000Y-65150000I0J-150000D01*
G01*
X110790000Y-66800000D01*
G75*
G02*
X110640000Y-66950000I-150000J0D01*
G01*
G37*
G36*
G01*
X109370000Y-66950000D02*
X109070000Y-66950000D01*
G75*
G02*
X108920000Y-66800000I0J150000D01*
G01*
X108920000Y-65150000D01*
G75*
G02*
X109070000Y-65000000I150000J0D01*
G01*
X109370000Y-65000000D01*
G75*
G02*
X109520000Y-65150000I0J-150000D01*
G01*
X109520000Y-66800000D01*
G75*
G02*
X109370000Y-66950000I-150000J0D01*
G01*
G37*
G36*
G01*
X108100000Y-66950000D02*
X107800000Y-66950000D01*
G75*
G02*
X107650000Y-66800000I0J150000D01*
G01*
X107650000Y-65150000D01*
G75*
G02*
X107800000Y-65000000I150000J0D01*
G01*
X108100000Y-65000000D01*
G75*
G02*
X108250000Y-65150000I0J-150000D01*
G01*
X108250000Y-66800000D01*
G75*
G02*
X108100000Y-66950000I-150000J0D01*
G01*
G37*
G36*
G01*
X108100000Y-72160000D02*
X107800000Y-72160000D01*
G75*
G02*
X107650000Y-72010000I0J150000D01*
G01*
X107650000Y-70360000D01*
G75*
G02*
X107800000Y-70210000I150000J0D01*
G01*
X108100000Y-70210000D01*
G75*
G02*
X108250000Y-70360000I0J-150000D01*
G01*
X108250000Y-72010000D01*
G75*
G02*
X108100000Y-72160000I-150000J0D01*
G01*
G37*
G36*
G01*
X109370000Y-72160000D02*
X109070000Y-72160000D01*
G75*
G02*
X108920000Y-72010000I0J150000D01*
G01*
X108920000Y-70360000D01*
G75*
G02*
X109070000Y-70210000I150000J0D01*
G01*
X109370000Y-70210000D01*
G75*
G02*
X109520000Y-70360000I0J-150000D01*
G01*
X109520000Y-72010000D01*
G75*
G02*
X109370000Y-72160000I-150000J0D01*
G01*
G37*
G36*
G01*
X110640000Y-72160000D02*
X110340000Y-72160000D01*
G75*
G02*
X110190000Y-72010000I0J150000D01*
G01*
X110190000Y-70360000D01*
G75*
G02*
X110340000Y-70210000I150000J0D01*
G01*
X110640000Y-70210000D01*
G75*
G02*
X110790000Y-70360000I0J-150000D01*
G01*
X110790000Y-72010000D01*
G75*
G02*
X110640000Y-72160000I-150000J0D01*
G01*
G37*
G36*
G01*
X111910000Y-72160000D02*
X111610000Y-72160000D01*
G75*
G02*
X111460000Y-72010000I0J150000D01*
G01*
X111460000Y-70360000D01*
G75*
G02*
X111610000Y-70210000I150000J0D01*
G01*
X111910000Y-70210000D01*
G75*
G02*
X112060000Y-70360000I0J-150000D01*
G01*
X112060000Y-72010000D01*
G75*
G02*
X111910000Y-72160000I-150000J0D01*
G01*
G37*
G36*
G01*
X113180000Y-72160000D02*
X112880000Y-72160000D01*
G75*
G02*
X112730000Y-72010000I0J150000D01*
G01*
X112730000Y-70360000D01*
G75*
G02*
X112880000Y-70210000I150000J0D01*
G01*
X113180000Y-70210000D01*
G75*
G02*
X113330000Y-70360000I0J-150000D01*
G01*
X113330000Y-72010000D01*
G75*
G02*
X113180000Y-72160000I-150000J0D01*
G01*
G37*
G36*
G01*
X114450000Y-72160000D02*
X114150000Y-72160000D01*
G75*
G02*
X114000000Y-72010000I0J150000D01*
G01*
X114000000Y-70360000D01*
G75*
G02*
X114150000Y-70210000I150000J0D01*
G01*
X114450000Y-70210000D01*
G75*
G02*
X114600000Y-70360000I0J-150000D01*
G01*
X114600000Y-72010000D01*
G75*
G02*
X114450000Y-72160000I-150000J0D01*
G01*
G37*
G36*
G01*
X115720000Y-72160000D02*
X115420000Y-72160000D01*
G75*
G02*
X115270000Y-72010000I0J150000D01*
G01*
X115270000Y-70360000D01*
G75*
G02*
X115420000Y-70210000I150000J0D01*
G01*
X115720000Y-70210000D01*
G75*
G02*
X115870000Y-70360000I0J-150000D01*
G01*
X115870000Y-72010000D01*
G75*
G02*
X115720000Y-72160000I-150000J0D01*
G01*
G37*
G36*
G01*
X115720000Y-77110000D02*
X115420000Y-77110000D01*
G75*
G02*
X115270000Y-76960000I0J150000D01*
G01*
X115270000Y-75310000D01*
G75*
G02*
X115420000Y-75160000I150000J0D01*
G01*
X115720000Y-75160000D01*
G75*
G02*
X115870000Y-75310000I0J-150000D01*
G01*
X115870000Y-76960000D01*
G75*
G02*
X115720000Y-77110000I-150000J0D01*
G01*
G37*
G36*
G01*
X114450000Y-77110000D02*
X114150000Y-77110000D01*
G75*
G02*
X114000000Y-76960000I0J150000D01*
G01*
X114000000Y-75310000D01*
G75*
G02*
X114150000Y-75160000I150000J0D01*
G01*
X114450000Y-75160000D01*
G75*
G02*
X114600000Y-75310000I0J-150000D01*
G01*
X114600000Y-76960000D01*
G75*
G02*
X114450000Y-77110000I-150000J0D01*
G01*
G37*
G36*
G01*
X113180000Y-77110000D02*
X112880000Y-77110000D01*
G75*
G02*
X112730000Y-76960000I0J150000D01*
G01*
X112730000Y-75310000D01*
G75*
G02*
X112880000Y-75160000I150000J0D01*
G01*
X113180000Y-75160000D01*
G75*
G02*
X113330000Y-75310000I0J-150000D01*
G01*
X113330000Y-76960000D01*
G75*
G02*
X113180000Y-77110000I-150000J0D01*
G01*
G37*
G36*
G01*
X111910000Y-77110000D02*
X111610000Y-77110000D01*
G75*
G02*
X111460000Y-76960000I0J150000D01*
G01*
X111460000Y-75310000D01*
G75*
G02*
X111610000Y-75160000I150000J0D01*
G01*
X111910000Y-75160000D01*
G75*
G02*
X112060000Y-75310000I0J-150000D01*
G01*
X112060000Y-76960000D01*
G75*
G02*
X111910000Y-77110000I-150000J0D01*
G01*
G37*
G36*
G01*
X110640000Y-77110000D02*
X110340000Y-77110000D01*
G75*
G02*
X110190000Y-76960000I0J150000D01*
G01*
X110190000Y-75310000D01*
G75*
G02*
X110340000Y-75160000I150000J0D01*
G01*
X110640000Y-75160000D01*
G75*
G02*
X110790000Y-75310000I0J-150000D01*
G01*
X110790000Y-76960000D01*
G75*
G02*
X110640000Y-77110000I-150000J0D01*
G01*
G37*
G36*
G01*
X109370000Y-77110000D02*
X109070000Y-77110000D01*
G75*
G02*
X108920000Y-76960000I0J150000D01*
G01*
X108920000Y-75310000D01*
G75*
G02*
X109070000Y-75160000I150000J0D01*
G01*
X109370000Y-75160000D01*
G75*
G02*
X109520000Y-75310000I0J-150000D01*
G01*
X109520000Y-76960000D01*
G75*
G02*
X109370000Y-77110000I-150000J0D01*
G01*
G37*
G36*
G01*
X108100000Y-77110000D02*
X107800000Y-77110000D01*
G75*
G02*
X107650000Y-76960000I0J150000D01*
G01*
X107650000Y-75310000D01*
G75*
G02*
X107800000Y-75160000I150000J0D01*
G01*
X108100000Y-75160000D01*
G75*
G02*
X108250000Y-75310000I0J-150000D01*
G01*
X108250000Y-76960000D01*
G75*
G02*
X108100000Y-77110000I-150000J0D01*
G01*
G37*
G36*
G01*
X108100000Y-82320000D02*
X107800000Y-82320000D01*
G75*
G02*
X107650000Y-82170000I0J150000D01*
G01*
X107650000Y-80520000D01*
G75*
G02*
X107800000Y-80370000I150000J0D01*
G01*
X108100000Y-80370000D01*
G75*
G02*
X108250000Y-80520000I0J-150000D01*
G01*
X108250000Y-82170000D01*
G75*
G02*
X108100000Y-82320000I-150000J0D01*
G01*
G37*
G36*
G01*
X109370000Y-82320000D02*
X109070000Y-82320000D01*
G75*
G02*
X108920000Y-82170000I0J150000D01*
G01*
X108920000Y-80520000D01*
G75*
G02*
X109070000Y-80370000I150000J0D01*
G01*
X109370000Y-80370000D01*
G75*
G02*
X109520000Y-80520000I0J-150000D01*
G01*
X109520000Y-82170000D01*
G75*
G02*
X109370000Y-82320000I-150000J0D01*
G01*
G37*
G36*
G01*
X110640000Y-82320000D02*
X110340000Y-82320000D01*
G75*
G02*
X110190000Y-82170000I0J150000D01*
G01*
X110190000Y-80520000D01*
G75*
G02*
X110340000Y-80370000I150000J0D01*
G01*
X110640000Y-80370000D01*
G75*
G02*
X110790000Y-80520000I0J-150000D01*
G01*
X110790000Y-82170000D01*
G75*
G02*
X110640000Y-82320000I-150000J0D01*
G01*
G37*
G36*
G01*
X111910000Y-82320000D02*
X111610000Y-82320000D01*
G75*
G02*
X111460000Y-82170000I0J150000D01*
G01*
X111460000Y-80520000D01*
G75*
G02*
X111610000Y-80370000I150000J0D01*
G01*
X111910000Y-80370000D01*
G75*
G02*
X112060000Y-80520000I0J-150000D01*
G01*
X112060000Y-82170000D01*
G75*
G02*
X111910000Y-82320000I-150000J0D01*
G01*
G37*
G36*
G01*
X113180000Y-82320000D02*
X112880000Y-82320000D01*
G75*
G02*
X112730000Y-82170000I0J150000D01*
G01*
X112730000Y-80520000D01*
G75*
G02*
X112880000Y-80370000I150000J0D01*
G01*
X113180000Y-80370000D01*
G75*
G02*
X113330000Y-80520000I0J-150000D01*
G01*
X113330000Y-82170000D01*
G75*
G02*
X113180000Y-82320000I-150000J0D01*
G01*
G37*
G36*
G01*
X114450000Y-82320000D02*
X114150000Y-82320000D01*
G75*
G02*
X114000000Y-82170000I0J150000D01*
G01*
X114000000Y-80520000D01*
G75*
G02*
X114150000Y-80370000I150000J0D01*
G01*
X114450000Y-80370000D01*
G75*
G02*
X114600000Y-80520000I0J-150000D01*
G01*
X114600000Y-82170000D01*
G75*
G02*
X114450000Y-82320000I-150000J0D01*
G01*
G37*
G36*
G01*
X115720000Y-82320000D02*
X115420000Y-82320000D01*
G75*
G02*
X115270000Y-82170000I0J150000D01*
G01*
X115270000Y-80520000D01*
G75*
G02*
X115420000Y-80370000I150000J0D01*
G01*
X115720000Y-80370000D01*
G75*
G02*
X115870000Y-80520000I0J-150000D01*
G01*
X115870000Y-82170000D01*
G75*
G02*
X115720000Y-82320000I-150000J0D01*
G01*
G37*
G36*
G01*
X115720000Y-87270000D02*
X115420000Y-87270000D01*
G75*
G02*
X115270000Y-87120000I0J150000D01*
G01*
X115270000Y-85470000D01*
G75*
G02*
X115420000Y-85320000I150000J0D01*
G01*
X115720000Y-85320000D01*
G75*
G02*
X115870000Y-85470000I0J-150000D01*
G01*
X115870000Y-87120000D01*
G75*
G02*
X115720000Y-87270000I-150000J0D01*
G01*
G37*
G36*
G01*
X114450000Y-87270000D02*
X114150000Y-87270000D01*
G75*
G02*
X114000000Y-87120000I0J150000D01*
G01*
X114000000Y-85470000D01*
G75*
G02*
X114150000Y-85320000I150000J0D01*
G01*
X114450000Y-85320000D01*
G75*
G02*
X114600000Y-85470000I0J-150000D01*
G01*
X114600000Y-87120000D01*
G75*
G02*
X114450000Y-87270000I-150000J0D01*
G01*
G37*
G36*
G01*
X113180000Y-87270000D02*
X112880000Y-87270000D01*
G75*
G02*
X112730000Y-87120000I0J150000D01*
G01*
X112730000Y-85470000D01*
G75*
G02*
X112880000Y-85320000I150000J0D01*
G01*
X113180000Y-85320000D01*
G75*
G02*
X113330000Y-85470000I0J-150000D01*
G01*
X113330000Y-87120000D01*
G75*
G02*
X113180000Y-87270000I-150000J0D01*
G01*
G37*
G36*
G01*
X111910000Y-87270000D02*
X111610000Y-87270000D01*
G75*
G02*
X111460000Y-87120000I0J150000D01*
G01*
X111460000Y-85470000D01*
G75*
G02*
X111610000Y-85320000I150000J0D01*
G01*
X111910000Y-85320000D01*
G75*
G02*
X112060000Y-85470000I0J-150000D01*
G01*
X112060000Y-87120000D01*
G75*
G02*
X111910000Y-87270000I-150000J0D01*
G01*
G37*
G36*
G01*
X110640000Y-87270000D02*
X110340000Y-87270000D01*
G75*
G02*
X110190000Y-87120000I0J150000D01*
G01*
X110190000Y-85470000D01*
G75*
G02*
X110340000Y-85320000I150000J0D01*
G01*
X110640000Y-85320000D01*
G75*
G02*
X110790000Y-85470000I0J-150000D01*
G01*
X110790000Y-87120000D01*
G75*
G02*
X110640000Y-87270000I-150000J0D01*
G01*
G37*
G36*
G01*
X109370000Y-87270000D02*
X109070000Y-87270000D01*
G75*
G02*
X108920000Y-87120000I0J150000D01*
G01*
X108920000Y-85470000D01*
G75*
G02*
X109070000Y-85320000I150000J0D01*
G01*
X109370000Y-85320000D01*
G75*
G02*
X109520000Y-85470000I0J-150000D01*
G01*
X109520000Y-87120000D01*
G75*
G02*
X109370000Y-87270000I-150000J0D01*
G01*
G37*
G36*
G01*
X108100000Y-87270000D02*
X107800000Y-87270000D01*
G75*
G02*
X107650000Y-87120000I0J150000D01*
G01*
X107650000Y-85470000D01*
G75*
G02*
X107800000Y-85320000I150000J0D01*
G01*
X108100000Y-85320000D01*
G75*
G02*
X108250000Y-85470000I0J-150000D01*
G01*
X108250000Y-87120000D01*
G75*
G02*
X108100000Y-87270000I-150000J0D01*
G01*
G37*
G36*
G01*
X104765000Y-72885000D02*
X103515000Y-72885000D01*
G75*
G02*
X103265000Y-72635000I0J250000D01*
G01*
X103265000Y-71710000D01*
G75*
G02*
X103515000Y-71460000I250000J0D01*
G01*
X104765000Y-71460000D01*
G75*
G02*
X105015000Y-71710000I0J-250000D01*
G01*
X105015000Y-72635000D01*
G75*
G02*
X104765000Y-72885000I-250000J0D01*
G01*
G37*
G36*
G01*
X104765000Y-75860000D02*
X103515000Y-75860000D01*
G75*
G02*
X103265000Y-75610000I0J250000D01*
G01*
X103265000Y-74685000D01*
G75*
G02*
X103515000Y-74435000I250000J0D01*
G01*
X104765000Y-74435000D01*
G75*
G02*
X105015000Y-74685000I0J-250000D01*
G01*
X105015000Y-75610000D01*
G75*
G02*
X104765000Y-75860000I-250000J0D01*
G01*
G37*
G36*
G01*
X103515000Y-64275000D02*
X104765000Y-64275000D01*
G75*
G02*
X105015000Y-64525000I0J-250000D01*
G01*
X105015000Y-65450000D01*
G75*
G02*
X104765000Y-65700000I-250000J0D01*
G01*
X103515000Y-65700000D01*
G75*
G02*
X103265000Y-65450000I0J250000D01*
G01*
X103265000Y-64525000D01*
G75*
G02*
X103515000Y-64275000I250000J0D01*
G01*
G37*
G36*
G01*
X103515000Y-61300000D02*
X104765000Y-61300000D01*
G75*
G02*
X105015000Y-61550000I0J-250000D01*
G01*
X105015000Y-62475000D01*
G75*
G02*
X104765000Y-62725000I-250000J0D01*
G01*
X103515000Y-62725000D01*
G75*
G02*
X103265000Y-62475000I0J250000D01*
G01*
X103265000Y-61550000D01*
G75*
G02*
X103515000Y-61300000I250000J0D01*
G01*
G37*
G36*
G01*
X104765000Y-83045000D02*
X103515000Y-83045000D01*
G75*
G02*
X103265000Y-82795000I0J250000D01*
G01*
X103265000Y-81870000D01*
G75*
G02*
X103515000Y-81620000I250000J0D01*
G01*
X104765000Y-81620000D01*
G75*
G02*
X105015000Y-81870000I0J-250000D01*
G01*
X105015000Y-82795000D01*
G75*
G02*
X104765000Y-83045000I-250000J0D01*
G01*
G37*
G36*
G01*
X104765000Y-86020000D02*
X103515000Y-86020000D01*
G75*
G02*
X103265000Y-85770000I0J250000D01*
G01*
X103265000Y-84845000D01*
G75*
G02*
X103515000Y-84595000I250000J0D01*
G01*
X104765000Y-84595000D01*
G75*
G02*
X105015000Y-84845000I0J-250000D01*
G01*
X105015000Y-85770000D01*
G75*
G02*
X104765000Y-86020000I-250000J0D01*
G01*
G37*
G36*
G01*
X103515000Y-94972500D02*
X104765000Y-94972500D01*
G75*
G02*
X105015000Y-95222500I0J-250000D01*
G01*
X105015000Y-96147500D01*
G75*
G02*
X104765000Y-96397500I-250000J0D01*
G01*
X103515000Y-96397500D01*
G75*
G02*
X103265000Y-96147500I0J250000D01*
G01*
X103265000Y-95222500D01*
G75*
G02*
X103515000Y-94972500I250000J0D01*
G01*
G37*
G36*
G01*
X103515000Y-91997500D02*
X104765000Y-91997500D01*
G75*
G02*
X105015000Y-92247500I0J-250000D01*
G01*
X105015000Y-93172500D01*
G75*
G02*
X104765000Y-93422500I-250000J0D01*
G01*
X103515000Y-93422500D01*
G75*
G02*
X103265000Y-93172500I0J250000D01*
G01*
X103265000Y-92247500D01*
G75*
G02*
X103515000Y-91997500I250000J0D01*
G01*
G37*
G36*
G01*
X115075000Y-125085000D02*
X115075000Y-123835000D01*
G75*
G02*
X115325000Y-123585000I250000J0D01*
G01*
X116250000Y-123585000D01*
G75*
G02*
X116500000Y-123835000I0J-250000D01*
G01*
X116500000Y-125085000D01*
G75*
G02*
X116250000Y-125335000I-250000J0D01*
G01*
X115325000Y-125335000D01*
G75*
G02*
X115075000Y-125085000I0J250000D01*
G01*
G37*
G36*
G01*
X112100000Y-125085000D02*
X112100000Y-123835000D01*
G75*
G02*
X112350000Y-123585000I250000J0D01*
G01*
X113275000Y-123585000D01*
G75*
G02*
X113525000Y-123835000I0J-250000D01*
G01*
X113525000Y-125085000D01*
G75*
G02*
X113275000Y-125335000I-250000J0D01*
G01*
X112350000Y-125335000D01*
G75*
G02*
X112100000Y-125085000I0J250000D01*
G01*
G37*
M02*
