%TF.GenerationSoftware,KiCad,Pcbnew,(5.1.6-0-10_14)*%
%TF.CreationDate,2021-04-25T21:39:23+02:00*%
%TF.ProjectId,Z80_Dev_Board,5a38305f-4465-4765-9f42-6f6172642e6b,rev?*%
%TF.SameCoordinates,Original*%
%TF.FileFunction,Legend,Bot*%
%TF.FilePolarity,Positive*%
%FSLAX46Y46*%
G04 Gerber Fmt 4.6, Leading zero omitted, Abs format (unit mm)*
G04 Created by KiCad (PCBNEW (5.1.6-0-10_14)) date 2021-04-25 21:39:23*
%MOMM*%
%LPD*%
G01*
G04 APERTURE LIST*
%ADD10C,0.120000*%
%ADD11C,0.150000*%
G04 APERTURE END LIST*
D10*
X102202064Y-117200000D02*
X100997936Y-117200000D01*
X102202064Y-119020000D02*
X100997936Y-119020000D01*
X164432064Y-60050000D02*
X163227936Y-60050000D01*
X164432064Y-61870000D02*
X163227936Y-61870000D01*
X149192064Y-60050000D02*
X147987936Y-60050000D01*
X149192064Y-61870000D02*
X147987936Y-61870000D01*
X155607936Y-101240000D02*
X156812064Y-101240000D01*
X155607936Y-99420000D02*
X156812064Y-99420000D01*
X126332064Y-85450000D02*
X125127936Y-85450000D01*
X126332064Y-87270000D02*
X125127936Y-87270000D01*
X95310000Y-105470000D02*
X90110000Y-105470000D01*
X95310000Y-62230000D02*
X95310000Y-105470000D01*
X90110000Y-59630000D02*
X90110000Y-105470000D01*
X95310000Y-62230000D02*
X92710000Y-62230000D01*
X92710000Y-62230000D02*
X92710000Y-59630000D01*
X92710000Y-59630000D02*
X90110000Y-59630000D01*
X95310000Y-60960000D02*
X95310000Y-59630000D01*
X95310000Y-59630000D02*
X93980000Y-59630000D01*
D11*
X102242857Y-116647142D02*
X102290476Y-116694761D01*
X102433333Y-116742380D01*
X102528571Y-116742380D01*
X102671428Y-116694761D01*
X102766666Y-116599523D01*
X102814285Y-116504285D01*
X102861904Y-116313809D01*
X102861904Y-116170952D01*
X102814285Y-115980476D01*
X102766666Y-115885238D01*
X102671428Y-115790000D01*
X102528571Y-115742380D01*
X102433333Y-115742380D01*
X102290476Y-115790000D01*
X102242857Y-115837619D01*
X101290476Y-116742380D02*
X101861904Y-116742380D01*
X101576190Y-116742380D02*
X101576190Y-115742380D01*
X101671428Y-115885238D01*
X101766666Y-115980476D01*
X101861904Y-116028095D01*
X100909523Y-115837619D02*
X100861904Y-115790000D01*
X100766666Y-115742380D01*
X100528571Y-115742380D01*
X100433333Y-115790000D01*
X100385714Y-115837619D01*
X100338095Y-115932857D01*
X100338095Y-116028095D01*
X100385714Y-116170952D01*
X100957142Y-116742380D01*
X100338095Y-116742380D01*
X163996666Y-59497142D02*
X164044285Y-59544761D01*
X164187142Y-59592380D01*
X164282380Y-59592380D01*
X164425238Y-59544761D01*
X164520476Y-59449523D01*
X164568095Y-59354285D01*
X164615714Y-59163809D01*
X164615714Y-59020952D01*
X164568095Y-58830476D01*
X164520476Y-58735238D01*
X164425238Y-58640000D01*
X164282380Y-58592380D01*
X164187142Y-58592380D01*
X164044285Y-58640000D01*
X163996666Y-58687619D01*
X163520476Y-59592380D02*
X163330000Y-59592380D01*
X163234761Y-59544761D01*
X163187142Y-59497142D01*
X163091904Y-59354285D01*
X163044285Y-59163809D01*
X163044285Y-58782857D01*
X163091904Y-58687619D01*
X163139523Y-58640000D01*
X163234761Y-58592380D01*
X163425238Y-58592380D01*
X163520476Y-58640000D01*
X163568095Y-58687619D01*
X163615714Y-58782857D01*
X163615714Y-59020952D01*
X163568095Y-59116190D01*
X163520476Y-59163809D01*
X163425238Y-59211428D01*
X163234761Y-59211428D01*
X163139523Y-59163809D01*
X163091904Y-59116190D01*
X163044285Y-59020952D01*
X148756666Y-59497142D02*
X148804285Y-59544761D01*
X148947142Y-59592380D01*
X149042380Y-59592380D01*
X149185238Y-59544761D01*
X149280476Y-59449523D01*
X149328095Y-59354285D01*
X149375714Y-59163809D01*
X149375714Y-59020952D01*
X149328095Y-58830476D01*
X149280476Y-58735238D01*
X149185238Y-58640000D01*
X149042380Y-58592380D01*
X148947142Y-58592380D01*
X148804285Y-58640000D01*
X148756666Y-58687619D01*
X148423333Y-58592380D02*
X147756666Y-58592380D01*
X148185238Y-59592380D01*
X156376666Y-99163142D02*
X156424285Y-99210761D01*
X156567142Y-99258380D01*
X156662380Y-99258380D01*
X156805238Y-99210761D01*
X156900476Y-99115523D01*
X156948095Y-99020285D01*
X156995714Y-98829809D01*
X156995714Y-98686952D01*
X156948095Y-98496476D01*
X156900476Y-98401238D01*
X156805238Y-98306000D01*
X156662380Y-98258380D01*
X156567142Y-98258380D01*
X156424285Y-98306000D01*
X156376666Y-98353619D01*
X155471904Y-98258380D02*
X155948095Y-98258380D01*
X155995714Y-98734571D01*
X155948095Y-98686952D01*
X155852857Y-98639333D01*
X155614761Y-98639333D01*
X155519523Y-98686952D01*
X155471904Y-98734571D01*
X155424285Y-98829809D01*
X155424285Y-99067904D01*
X155471904Y-99163142D01*
X155519523Y-99210761D01*
X155614761Y-99258380D01*
X155852857Y-99258380D01*
X155948095Y-99210761D01*
X155995714Y-99163142D01*
X125896666Y-84897142D02*
X125944285Y-84944761D01*
X126087142Y-84992380D01*
X126182380Y-84992380D01*
X126325238Y-84944761D01*
X126420476Y-84849523D01*
X126468095Y-84754285D01*
X126515714Y-84563809D01*
X126515714Y-84420952D01*
X126468095Y-84230476D01*
X126420476Y-84135238D01*
X126325238Y-84040000D01*
X126182380Y-83992380D01*
X126087142Y-83992380D01*
X125944285Y-84040000D01*
X125896666Y-84087619D01*
X124944285Y-84992380D02*
X125515714Y-84992380D01*
X125230000Y-84992380D02*
X125230000Y-83992380D01*
X125325238Y-84135238D01*
X125420476Y-84230476D01*
X125515714Y-84278095D01*
M02*
